<?xml version="1.0" encoding="UTF-8" standalone="no"?>
<svg
   xmlns:dc="http://purl.org/dc/elements/1.1/"
   xmlns:cc="http://creativecommons.org/ns#"
   xmlns:rdf="http://www.w3.org/1999/02/22-rdf-syntax-ns#"
   xmlns:svg="http://www.w3.org/2000/svg"
   xmlns="http://www.w3.org/2000/svg"
   version="1.1"
   id="svg1189"
   xml:space="preserve"
   width="6454.96"
   height="5949.9468"
   viewBox="0 0 6454.96 5949.9468"><metadata
     id="metadata1195"><rdf:RDF><cc:Work
         rdf:about=""><dc:format>image/svg+xml</dc:format><dc:type
           rdf:resource="http://purl.org/dc/dcmitype/StillImage" /><dc:title></dc:title></cc:Work></rdf:RDF></metadata><defs
     id="defs1193"><clipPath
       clipPathUnits="userSpaceOnUse"
       id="clipPath1207"><path
         d="m 29213.5,20168.5 c -819.6,-23 -1665.3,-89 -2517.6,-200.9 v 0 c -852.2,-112.2 -1714,-256.5 -2565,-446.1 v 0 c -853.9,-189.3 -1687,-409.4 -2497,-609.3 v 0 c -812.4,-197.7 -1615.7,-391.9 -2393.6,-557.9 v 0 c -778.2,-167.1 -1531.2,-320.4 -2247.5,-439.4 v 0 c -358.1,-60.6 -707.3,-107.9 -1044.9,-147.5 v 0 c -337.5,-45.8 -663.5,-75.3 -977,-98.1 v 0 c -312.5,-17 -613.1,-27.4 -896.3,-18.9 v 0 c -284.2,1.8 -552.2,21.3 -800.8,56.5 v 0 c -498.1,68.5 -917.6,202.8 -1244.5,365.3 v 0 c -325.6,164.3 -568.2,334.9 -732.3,451.6 v 0 c -165.2,116.7 -253.3,178.9 -253.3,178.9 v 0 c 0,0 72.7,-79.8 208.9,-229.5 v 0 c 140,-145.4 340.4,-370.7 655.7,-599.6 v 0 c 312.1,-230.2 744,-459.3 1271.1,-603.4 v 0 c 524.9,-155.8 1134.9,-239.1 1796,-270.1 v 0 c 330.2,-12.8 674.6,-19.7 1029.1,-11.3 v 0 c 354.6,10.3 719.9,32.4 1093.5,64.6 v 0 c 748.1,60.3 1531.3,157.7 2334.2,290 v 0 c 803.9,131.3 1625.5,292.8 2458.7,478.5 v 0 c 836.6,180.1 1663.7,399.2 2486.2,579.2 v 0 c 824.1,187.3 1654.9,336.5 2474.4,468.8 v 0 c 819.9,132.5 1631.5,223.7 2418.5,292.1 v 0 c 787.2,62 1550.5,107 2275.4,107.4 v 0 c 724.3,-2 1410.6,-20.8 2042.5,-72.3 v 0 c 1264,-101.2 2310.8,-296.2 3033.5,-482.6 v 0 c 360.5,-95.3 643.6,-178.2 833,-245.7 v 0 c 190.2,-65.6 289.8,-107.8 289.8,-107.8 v 0 c 0,0 -352.4,255.8 -1049,565 v 0 c -693.7,310.3 -1730.6,672.8 -3020.2,914.3 v 0 c -643.9,121.5 -1348.8,224.3 -2098.7,274.8 v 0 c -547,38.9 -1117.6,64.6 -1704.5,64.6 v 0 c -217.4,0 -436.9,-3.5 -658.3,-11.2"
         id="path1205" /></clipPath><radialGradient
       fx="0"
       fy="0"
       cx="0"
       cy="0"
       r="1"
       gradientUnits="userSpaceOnUse"
       gradientTransform="matrix(-9507.37,0,0,-9507.37,24393.9,18582.4)"
       spreadMethod="pad"
       id="radialGradient1215"><stop
         style="stop-opacity:1;stop-color:#3a9bd5"
         offset="0"
         id="stop1211" /><stop
         style="stop-opacity:1;stop-color:#0063ad"
         offset="1"
         id="stop1213" /></radialGradient><clipPath
       clipPathUnits="userSpaceOnUse"
       id="clipPath1225"><path
         d="m 29151.6,18071 c -508.3,-11.6 -1045.6,-25.3 -1598.5,-76.1 v 0 c -552.6,-50.7 -1123.5,-111.7 -1699.9,-197.7 v 0 c -576.3,-87 -1158.6,-194.5 -1736.4,-321.1 v 0 c -580.4,-123.3 -1150.6,-272.1 -1705.5,-413.4 v 0 c -553.6,-141.7 -1098.3,-281.1 -1625.4,-416 v 0 c -528.6,-130 -1039.5,-255.7 -1524,-374.9 v 0 c -486,-112.4 -945.5,-218.7 -1369.7,-316.8 v 0 c -850.5,-188.8 -1564.1,-327.1 -2068.2,-415.1 v 0 c -503.8,-85.5 -796.3,-128.4 -796.3,-128.4 v 0 c 0,0 292.1,-43 808.7,-63.5 v 0 c 258.2,-11.3 572.6,-17.4 932.3,-5.8 v 0 c 360.3,5.7 766,28.9 1206.7,68.8 v 0 c 442.2,32.3 917.1,93.8 1419,163.1 v 0 c 501.7,68.7 1028.5,156.5 1569.4,262.6 v 0 c 270.6,52.8 545.7,106.5 824.1,160.8 v 0 c 277.2,61.7 557.7,124.1 840.5,187 v 0 c 556,131.3 1120.8,264.7 1685.7,398.1 v 0 c 563.3,124.3 1127.1,246.7 1685.7,346.5 v 0 c 556.6,112.3 1108.2,201.4 1643.3,278.9 v 0 c 267.9,37.5 531.4,74.4 789.2,110.5 v 0 c 258.8,30.2 511.9,59.9 758.3,88.7 v 0 c 494,44.7 961.9,98.1 1395.6,122.3 v 0 c 433.5,26.5 832.4,52.9 1186.6,61.4 v 0 c 354,10.8 664.7,19.9 919.6,20.2 v 0 c 254.8,0.8 457.7,4.5 595.2,1 v 0 c 138,0.4 211.5,0.6 211.5,0.6 v 0 c 0,0 -71.5,17.2 -205.6,49.3 v 0 c -134.2,30.9 -330.6,78.1 -585.1,122.8 v 0 c -254.2,44.9 -562.7,103.1 -920.1,142.6 v 0 c -356.9,44 -761.5,89.8 -1204.2,110.1 v 0 c -361.7,20.1 -749,36.1 -1156,36.1 v 0 c -91.2,0 -183.4,-0.8 -276.5,-2.6"
         id="path1223" /></clipPath><radialGradient
       fx="0"
       fy="0"
       cx="0"
       cy="0"
       r="1"
       gradientUnits="userSpaceOnUse"
       gradientTransform="matrix(-6601.97,0,0,-6601.97,24263.4,16704.8)"
       spreadMethod="pad"
       id="radialGradient1233"><stop
         style="stop-opacity:1;stop-color:#3a9bd5"
         offset="0"
         id="stop1229" /><stop
         style="stop-opacity:1;stop-color:#0063ad"
         offset="1"
         id="stop1231" /></radialGradient><clipPath
       clipPathUnits="userSpaceOnUse"
       id="clipPath1247"><path
         d="M 11588.3,24048.5 H 28505.1 V 35778.7 H 11588.3 Z"
         id="path1245" /></clipPath><clipPath
       clipPathUnits="userSpaceOnUse"
       id="clipPath1253"><path
         d="M 11588.3,24048.5 H 28505.1 V 35778.7 H 11588.3 Z"
         id="path1251" /></clipPath><clipPath
       clipPathUnits="userSpaceOnUse"
       id="clipPath1257"><path
         d="M 11588.3,24048.5 H 28505.1 V 35778.7 H 11588.3 Z"
         id="path1255" /></clipPath><clipPath
       clipPathUnits="userSpaceOnUse"
       id="clipPath1277"><path
         d="m 13503.1,35674.1 4641.6,-5697.4 c 886.4,-1088 2410.8,-1413.3 3664.2,-781.9 v 0 l 6562.9,3306.3 c -103.3,146.6 -259.4,256.9 -448,297.1 v 0 l -13890.4,2964.3 c -51.1,10.9 -102.2,16.1 -152.6,16.1 v 0 c -135.3,0.1 -265.4,-37.7 -377.7,-104.5"
         id="path1275" /></clipPath><radialGradient
       fx="0"
       fy="0"
       cx="0"
       cy="0"
       r="1"
       gradientUnits="userSpaceOnUse"
       gradientTransform="matrix(-5795.91,0,0,-5795.91,20937.5,32326.8)"
       spreadMethod="pad"
       id="radialGradient1285"><stop
         style="stop-opacity:1;stop-color:#3a9bd5"
         offset="0"
         id="stop1281" /><stop
         style="stop-opacity:1;stop-color:#0063ad"
         offset="1"
         id="stop1283" /></radialGradient><clipPath
       clipPathUnits="userSpaceOnUse"
       id="clipPath1295"><path
         d="m 10624.4,31101.7 c -17.1,-128.9 73.6,-247.1 202.4,-264.1 v 0 l 3842.6,-506.7 c 30.3,-4 60.1,-2.1 87.9,4.9 v 0 c 91,22.8 163.1,99.1 176.1,197.5 v 0 c 17,128.9 -73.6,247.1 -202.5,264 v 0 l -3842.5,506.8 c -10.5,1.4 -21,2.1 -31.3,2.1 v 0 c -116.7,0 -217.1,-86.3 -232.7,-204.5"
         id="path1293" /></clipPath><radialGradient
       fx="0"
       fy="0"
       cx="0"
       cy="0"
       r="1"
       gradientUnits="userSpaceOnUse"
       gradientTransform="matrix(-1563.58,0,0,-1563.58,12778.9,30817.5)"
       spreadMethod="pad"
       id="radialGradient1303"><stop
         style="stop-opacity:1;stop-color:#3a9bd5"
         offset="0"
         id="stop1299" /><stop
         style="stop-opacity:1;stop-color:#0063ad"
         offset="1"
         id="stop1301" /></radialGradient><clipPath
       clipPathUnits="userSpaceOnUse"
       id="clipPath1313"><path
         d="m 10622.3,30328.8 h 4313.1 v 977.402 h -4313.1 z"
         id="path1311" /></clipPath><clipPath
       clipPathUnits="userSpaceOnUse"
       id="clipPath1319"><path
         d="m 10622.3,30328.8 h 4313.1 v 977.4 h -4313.1 z"
         id="path1317" /></clipPath><clipPath
       clipPathUnits="userSpaceOnUse"
       id="clipPath1323"><path
         d="m 14757.3,30335.8 c -27.8,-7 -57.6,-8.9 -87.9,-4.9 l -3842.6,506.7 c -128.8,17 -219.5,135.2 -202.4,264.1 17,128.6 134.4,219.5 264,202.4 l 3842.5,-506.8 c 128.9,-16.9 219.5,-135.1 202.5,-264 -13,-98.4 -85.1,-174.7 -176.1,-197.5"
         id="path1321" /></clipPath><radialGradient
       fx="0"
       fy="0"
       cx="0"
       cy="0"
       r="1"
       gradientUnits="userSpaceOnUse"
       gradientTransform="matrix(-15635.8,0,0,-15635.8,127789,308175)"
       spreadMethod="pad"
       id="radialGradient1329"><stop
         style="stop-opacity:1;stop-color:#3a9bd5"
         offset="0"
         id="stop1325" /><stop
         style="stop-opacity:1;stop-color:#0063ad"
         offset="1"
         id="stop1327" /></radialGradient><clipPath
       clipPathUnits="userSpaceOnUse"
       id="clipPath1349"><path
         d="m 11694.4,32819.6 c -17,-128.8 73.6,-247 202.5,-264 v 0 l 2063.6,-272.2 c 30.4,-3.9 60.1,-2 88,5 v 0 c 90.9,22.8 163.1,99 176.1,197.5 v 0 c 17,128.9 -73.7,247.1 -202.5,264 v 0 l -2063.7,272.2 c -10.5,1.4 -20.9,2 -31.3,2 v 0 c -116.6,0 -217.2,-86.3 -232.7,-204.5"
         id="path1347" /></clipPath><radialGradient
       fx="0"
       fy="0"
       cx="0"
       cy="0"
       r="1"
       gradientUnits="userSpaceOnUse"
       gradientTransform="matrix(-933.681,0,0,-933.681,12959.5,32652.8)"
       spreadMethod="pad"
       id="radialGradient1357"><stop
         style="stop-opacity:1;stop-color:#3a9bd5"
         offset="0"
         id="stop1353" /><stop
         style="stop-opacity:1;stop-color:#0063ad"
         offset="1"
         id="stop1355" /></radialGradient><clipPath
       clipPathUnits="userSpaceOnUse"
       id="clipPath1367"><path
         d="m 11692.3,32281.4 h 2534.3 v 742.699 h -2534.3 z"
         id="path1365" /></clipPath><clipPath
       clipPathUnits="userSpaceOnUse"
       id="clipPath1373"><path
         d="m 11692.3,32281.4 h 2534.3 v 742.7 h -2534.3 z"
         id="path1371" /></clipPath><clipPath
       clipPathUnits="userSpaceOnUse"
       id="clipPath1377"><path
         d="m 14048.5,32288.4 c -27.9,-7 -57.6,-8.9 -88,-5 l -2063.6,272.2 c -128.9,17 -219.5,135.2 -202.5,264 16.9,128.7 134.5,219.6 264,202.5 l 2063.7,-272.2 c 128.8,-16.9 219.5,-135.1 202.4,-264 -12.9,-98.5 -85.1,-174.7 -176,-197.5"
         id="path1375" /></clipPath><radialGradient
       fx="0"
       fy="0"
       cx="0"
       cy="0"
       r="1"
       gradientUnits="userSpaceOnUse"
       gradientTransform="matrix(-9336.82,0,0,-9336.82,129595,326528)"
       spreadMethod="pad"
       id="radialGradient1383"><stop
         style="stop-opacity:1;stop-color:#3a9bd5"
         offset="0"
         id="stop1379" /><stop
         style="stop-opacity:1;stop-color:#0063ad"
         offset="1"
         id="stop1381" /></radialGradient><clipPath
       clipPathUnits="userSpaceOnUse"
       id="clipPath1403"><path
         d="m 8699.46,29204.7 c -17.01,-128.8 73.66,-247.1 202.45,-264 v 0 l 3746.59,-494.1 c 30.3,-4 60.1,-2.1 87.9,4.9 v 0 c 91,22.8 163.1,99 176.1,197.5 v 0 c 17,128.9 -73.6,247.1 -202.5,264 v 0 l -3746.53,494.2 c -10.44,1.3 -20.81,2 -31.06,2 v 0 c -116.42,0 -217.44,-86.1 -232.95,-204.5"
         id="path1401" /></clipPath><radialGradient
       fx="0"
       fy="0"
       cx="0"
       cy="0"
       r="1"
       gradientUnits="userSpaceOnUse"
       gradientTransform="matrix(-1529.5,0,0,-1529.5,10806,28926.9)"
       spreadMethod="pad"
       id="radialGradient1411"><stop
         style="stop-opacity:1;stop-color:#3a9bd5"
         offset="0"
         id="stop1407" /><stop
         style="stop-opacity:1;stop-color:#0063ad"
         offset="1"
         id="stop1409" /></radialGradient><clipPath
       clipPathUnits="userSpaceOnUse"
       id="clipPath1421"><path
         d="m 8697.41,28444.5 h 4217.09 v 964.699 H 8697.41 Z"
         id="path1419" /></clipPath><clipPath
       clipPathUnits="userSpaceOnUse"
       id="clipPath1427"><path
         d="m 8697.41,28444.5 h 4217.09 v 964.7 H 8697.41 Z"
         id="path1425" /></clipPath><clipPath
       clipPathUnits="userSpaceOnUse"
       id="clipPath1431"><path
         d="m 12736.4,28451.5 c -27.8,-7 -57.5,-8.9 -87.9,-4.9 l -3746.59,494.1 c -128.79,17 -219.46,135.2 -202.45,264 16.88,128.8 134.99,219.4 264.01,202.5 L 12710,28913 c 128.9,-16.9 219.5,-135.1 202.5,-264 -13,-98.5 -85.1,-174.7 -176.1,-197.5"
         id="path1429" /></clipPath><radialGradient
       fx="0"
       fy="0"
       cx="0"
       cy="0"
       r="1"
       gradientUnits="userSpaceOnUse"
       gradientTransform="matrix(-15295,0,0,-15295,108060,289269)"
       spreadMethod="pad"
       id="radialGradient1437"><stop
         style="stop-opacity:1;stop-color:#3a9bd5"
         offset="0"
         id="stop1433" /><stop
         style="stop-opacity:1;stop-color:#0063ad"
         offset="1"
         id="stop1435" /></radialGradient><clipPath
       clipPathUnits="userSpaceOnUse"
       id="clipPath1461"><path
         d="m 15658.4,24551.4 c -3179.8,-202.9 -6094.94,288.7 -6094.94,288.7 v 0 c 207.98,-838.4 735.24,-1434.6 1210.44,-1821.2 v 0 c 322.5,-262.2 635,-445 898.6,-563.6 v 0 c 4792.7,285.8 10532.9,1076.6 16814.7,2914.8 v 0 c 2903.4,849.6 0,0 0,0 v 0 c 9230.7,2327.8 11227.6,7938.1 11227.6,7938.1 v 0 C 34108,25946.9 15658.4,24551.4 15658.4,24551.4"
         id="path1459" /></clipPath><radialGradient
       fx="0"
       fy="0"
       cx="0"
       cy="0"
       r="1"
       gradientUnits="userSpaceOnUse"
       gradientTransform="matrix(-11329.6,1e-6,-1e-6,-11329.6,24639.1,27881.7)"
       spreadMethod="pad"
       id="radialGradient1469"><stop
         style="stop-opacity:1;stop-color:#3a9bd5"
         offset="0"
         id="stop1465" /><stop
         style="stop-opacity:1;stop-color:#0063ad"
         offset="1"
         id="stop1467" /></radialGradient><clipPath
       clipPathUnits="userSpaceOnUse"
       id="clipPath1479"><path
         d="M 18337.6,19687.9 H 32561 v 2855.3 H 18337.6 Z"
         id="path1477" /></clipPath><clipPath
       clipPathUnits="userSpaceOnUse"
       id="clipPath1485"><path
         d="M 18337.6,19687.9 H 32561 v 2855.3 H 18337.6 Z"
         id="path1483" /></clipPath><clipPath
       clipPathUnits="userSpaceOnUse"
       id="clipPath1489"><path
         d="M 18337.6,19687.9 H 32561 v 2855.3 H 18337.6 Z"
         id="path1487" /></clipPath></defs><g
     id="g1197"
     transform="matrix(1.3333333,0,0,-1.3333333,0,5949.9467)"><g
       id="g1199"
       transform="scale(0.1)"><g
         id="g1201"
         style="fill:#f39f0a;fill-opacity:1"><g
           id="g1203"
           clip-path="url(#clipPath1207)"
           style="fill:#f39f0a;fill-opacity:1"><g
             id="g1209"
             transform="scale(2.31559)"
             style="fill:#f39f0a;fill-opacity:1"><path
               d="m 12616,8709.86 c -353.9,-9.93 -719.2,-38.42 -1087.2,-86.78 v 0 c -368.1,-48.44 -740.3,-110.77 -1107.7,-192.64 v 0 c -368.8,-81.75 -728.6,-176.81 -1078.38,-263.11 v 0 c -350.85,-85.4 -697.77,-169.26 -1033.71,-240.96 v 0 c -336.08,-72.14 -661.26,-138.36 -970.58,-189.73 v 0 c -154.67,-26.19 -305.45,-46.59 -451.24,-63.72 v 0 c -145.75,-19.75 -286.55,-32.5 -421.92,-42.34 v 0 c -134.98,-7.35 -264.78,-11.82 -387.07,-8.16 v 0 c -122.77,0.78 -238.5,9.18 -345.87,24.4 v 0 c -215.07,29.55 -396.25,87.55 -537.41,157.74 v 0 c -140.61,70.96 -245.41,144.63 -316.24,195.01 v 0 c -71.35,50.4 -109.41,77.28 -109.41,77.28 v 0 c 0,0 31.38,-34.48 90.24,-99.12 v 0 c 60.42,-62.8 146.97,-160.07 283.13,-258.94 v 0 c 134.79,-99.43 321.31,-198.35 548.95,-260.57 v 0 c 226.67,-67.31 490.09,-103.24 775.61,-116.63 v 0 c 142.58,-5.55 291.32,-8.51 444.42,-4.9 v 0 c 153.12,4.44 310.91,14.01 472.23,27.9 v 0 c 323.05,26.06 661.28,68.08 1008.06,125.25 v 0 c 347.12,56.67 701.95,126.42 1061.78,206.63 v 0 c 361.29,77.76 718.51,172.4 1073.71,250.14 v 0 c 355.8,80.86 714.7,145.29 1068.6,202.45 v 0 c 354,57.21 704.5,96.59 1044.4,126.15 v 0 c 339.9,26.78 669.6,46.2 982.6,46.35 v 0 c 312.8,-0.82 609.2,-8.97 882.1,-31.19 v 0 c 545.9,-43.69 997.9,-127.95 1310,-208.43 v 0 c 155.7,-41.14 278,-76.94 359.8,-106.11 v 0 c 82.1,-28.31 125.1,-46.54 125.1,-46.54 v 0 c 0,0 -152.2,110.46 -453,244 v 0 c -299.6,134.01 -747.4,290.55 -1304.3,394.84 v 0 c -278.1,52.45 -582.5,96.88 -906.3,118.68 v 0 c -236.2,16.79 -482.7,27.88 -736.1,27.89 v 0 c -93.9,0 -188.7,-1.52 -284.3,-4.84"
               style="fill:#f39f0a;fill-opacity:1;fill-rule:nonzero;stroke:#f39f0a;stroke-opacity:1"
               id="path1217" /></g></g></g><g
         id="g1219"><g
           id="g1221"
           clip-path="url(#clipPath1225)"
           style="fill:#800000"><g
             id="g1227"
             transform="scale(2.05516)"
             style="fill:#f39f0a;fill-opacity:1"><path
               d="m 14184.6,8793 c -247.3,-5.64 -508.8,-12.34 -777.8,-37.05 v 0 c -268.9,-24.67 -546.7,-54.33 -827.2,-96.17 v 0 c -280.4,-42.36 -563.7,-94.67 -844.9,-156.28 v 0 c -282.3,-59.96 -559.8,-132.39 -829.8,-201.12 v 0 c -269.4,-68.94 -534.4,-136.78 -790.9,-202.45 v 0 c -257.19,-63.26 -505.8,-124.4 -741.55,-182.38 v 0 c -236.49,-54.71 -460.08,-106.44 -666.47,-154.18 v 0 c -413.82,-91.83 -761.06,-159.12 -1006.32,-201.94 v 0 c -245.17,-41.61 -387.49,-62.5 -387.49,-62.5 v 0 c 0,0 142.16,-20.9 393.51,-30.92 v 0 c 125.65,-5.47 278.61,-8.44 453.63,-2.8 v 0 c 175.34,2.76 372.7,14.06 587.18,33.5 v 0 c 215.16,15.69 446.23,45.62 690.45,79.32 v 0 c 244.11,33.43 500.42,76.17 763.66,127.77 v 0 c 131.6,25.7 265.5,51.83 401,78.28 v 0 c 134.8,29.99 271.3,60.37 408.9,90.97 v 0 c 270.6,63.9 545.4,128.81 820.3,193.7 v 0 c 274,60.51 548.4,120.04 820.2,168.6 v 0 c 270.8,54.66 539.2,98.01 799.6,135.73 v 0 c 130.3,18.24 258.5,36.19 384,53.75 v 0 c 125.9,14.72 249.1,29.14 369,43.15 v 0 c 240.3,21.76 468,47.76 679,59.55 v 0 c 211,12.88 405.1,25.7 577.4,29.87 v 0 c 172.3,5.24 323.4,9.65 447.5,9.79 v 0 c 124,0.42 222.7,2.2 289.6,0.5 v 0 c 67.1,0.21 102.9,0.32 102.9,0.32 v 0 c 0,0 -34.8,8.34 -100,23.97 v 0 c -65.3,15.01 -160.9,38 -284.7,59.73 v 0 c -123.7,21.87 -273.8,50.21 -447.7,69.4 v 0 c -173.7,21.43 -370.6,43.7 -586,53.57 v 0 c -176,9.78 -364.4,17.55 -562.5,17.55 v 0 c -44.4,0 -89.2,-0.38 -134.5,-1.23"
               style="fill:#f39f0a;fill-opacity:1;fill-rule:nonzero;stroke:none"
               id="path1235" /></g></g></g><g
         id="g1237"
         transform="scale(2.19649)"><path
           d="m 5992.13,16024.4 -708.92,-3322 c -38.39,-179.9 77.39,-358.5 257.3,-396.9 L 11864.4,10956 c 179.9,-38.4 358.5,77.4 396.9,257.3 l 708.9,3321.9 c 20.1,94.1 -2,188 -53.3,261.6 -47,66.8 -118.1,117 -203.9,135.3 l -6323.96,1349.6 c -85.86,18.3 -171.25,1.5 -241.43,-40.3 -76.86,-46.3 -135.41,-123 -155.48,-217"
           style="fill:#1e1401;fill-opacity:1;fill-rule:nonzero;stroke:none"
           id="path1239" /></g><g
         id="g1241"
         style="fill:#1e1401;fill-opacity:1"><g
           id="g1243"
           clip-path="url(#clipPath1247)"
           style="fill:#1e1401;fill-opacity:1"><g
             id="g1249"
             style="fill:#1e1401;fill-opacity:1" /><g
             id="g1269"
             style="fill:#1e1401;fill-opacity:1"><g
               clip-path="url(#clipPath1253)"
               opacity="0.399994"
               id="g1267"
               style="fill:#1e1401;fill-opacity:1"><g
                 id="g1265"
                 style="fill:#1e1401;fill-opacity:1"><g
                   clip-path="url(#clipPath1257)"
                   id="g1263"
                   style="fill:#1e1401;fill-opacity:1"><g
                     transform="scale(2.19503)"
                     id="g1261"
                     style="fill:#1e1401;fill-opacity:1" /></g></g></g></g></g></g><g
         id="g1271"
         style="fill:#ff9955"><g
           id="g1273"
           clip-path="url(#clipPath1277)"
           style="fill:#ff9955"><g
             id="g1279"
             transform="scale(2.19501)"
             style="fill:#ff9955"><path
               d="m 6151.75,16252.4 2114.59,-2595.6 c 403.85,-495.7 1098.31,-643.9 1669.33,-356.3 v 0 l 2989.93,1506.3 c -47.1,66.8 -118.2,117 -204.1,135.4 v 0 l -6328.16,1350.4 c -23.32,5 -46.6,7.4 -69.55,7.4 v 0 c -61.63,0 -120.88,-17.2 -172.04,-47.6"
               style="fill:#ff9955;fill-opacity:1;fill-rule:nonzero;stroke:none"
               id="path1287" /></g></g></g><g
         id="g1451"
         transform="scale(2.43649)"
         style="fill:#1e1401;fill-opacity:1"><path
           d="m 7526.24,8080.44 c 0,0 2620.46,1329.67 5837.66,1156.28 l -96.9,-367.23 c 0,0 -1286.3,615.38 -5740.76,-789.05 M 3925.1,10195 c 170.72,-688.16 865.6,-978.74 865.6,-978.74 l 978.43,-1421.99 c 613.88,-346.19 1644.25,67.61 3850.33,604.7 2206.04,537.07 3849.44,245.66 3849.44,245.66 68.5,1203.8 1167.1,1955.77 1167.1,1955.77 l 318.6,968.6 c -1170.7,-864.5 -3262.7,-1156.4 -3262.7,-1156.4 3788.5,955.4 4608.1,3258 4608.1,3258 -2301.2,-3021.3 -9873.37,-3594 -9873.37,-3594 C 5121.55,9993.28 3925.1,10195 3925.1,10195"
           style="fill:#1e1401;fill-opacity:1;fill-rule:nonzero;stroke:none"
           id="path1453" /></g><g
         id="g1455"><g
           id="g1457"
           clip-path="url(#clipPath1461)"
           transform="translate(-0.013,0.080194)"><g
             id="g1463"
             transform="scale(2.43649)"><path
               d="M 6426.63,10076.6 C 5121.55,9993.28 3925.1,10195 3925.1,10195 v 0 c 85.36,-344.06 301.76,-588.75 496.82,-747.42 v 0 c 132.33,-107.64 260.6,-182.65 368.78,-231.32 v 0 c 1967.05,117.31 4322.97,441.86 6901.2,1196.34 v 0 c 1191.6,348.7 0,0 0,0 v 0 c 3788.5,955.4 4608.1,3258 4608.1,3258 v 0 c -2301.2,-3021.3 -9873.37,-3594 -9873.37,-3594"
               style="fill:#f39f0a;fill-opacity:1;fill-rule:nonzero;stroke:none"
               id="path1471" /></g></g></g><g
         id="g1473"><g
           id="g1475"
           clip-path="url(#clipPath1479)"><g
             id="g1481" /><g
             id="g1501"><g
               clip-path="url(#clipPath1485)"
               opacity="0.600006"
               id="g1499"><g
                 id="g1497"><g
                   clip-path="url(#clipPath1489)"
                   id="g1495"><g
                     transform="scale(1.99761)"
                     id="g1493"><path
                       d="m 16181.8,10818.1 118.2,448 c -3924,211.4 -7120.22,-1410.36 -7120.22,-1410.36 5433.12,1712.96 7002.02,962.36 7002.02,962.36"
                       style="fill:#ffffff;fill-opacity:1;fill-rule:nonzero;stroke:none"
                       id="path1491" /></g></g></g></g></g></g></g><g
         id="g1503"
         transform="scale(10)" /><path
         style="fill:#f39f0a;stroke-width:8.59819;fill-opacity:1;opacity:0.994"
         d="m 2629.9119,2081.9652 c -62.9995,-17.1505 -120.8697,-49.9943 -168.7692,-95.7835 -24.7347,-23.6451 -182.3116,-212.024 -350.171,-418.62 -292.8891,-360.4787 -304.271,-375.8308 -282.1973,-380.6356 35.7315,-7.7776 1909.2513,394.5268 1928.697,414.1527 14.6212,14.7567 -3.3214,24.7 -442.234,245.0733 -251.6104,126.3309 -474.8848,233.6062 -496.1654,238.3896 -51.7068,11.6224 -141.4954,10.3994 -189.1601,-2.5765 z"
         id="path2070"
         transform="matrix(7.5000002,0,0,-7.5000002,0,44624.601)" /></g></g></svg>
