<?xml version="1.0" encoding="UTF-8" standalone="no"?>
<svg
   xmlns:dc="http://purl.org/dc/elements/1.1/"
   xmlns:cc="http://creativecommons.org/ns#"
   xmlns:rdf="http://www.w3.org/1999/02/22-rdf-syntax-ns#"
   xmlns:svg="http://www.w3.org/2000/svg"
   xmlns="http://www.w3.org/2000/svg"
   xmlns:xlink="http://www.w3.org/1999/xlink"
   width="238.85307mm"
   height="169.95795mm"
   viewBox="0 0 238.85307 169.95795"
   version="1.1"
   id="svg8">
  <defs
     id="defs2">
    <linearGradient
       id="deacd444-d5db-4c24-9492-02e57292be3c"
       x1="675.04999"
       y1="606.02002"
       x2="675.04999"
       y2="240.27"
       gradientUnits="userSpaceOnUse">
      <stop
         offset="0"
         stop-color="gray"
         stop-opacity="0.25"
         id="stop713" />
      <stop
         offset="0.54"
         stop-color="gray"
         stop-opacity="0.12"
         id="stop715" />
      <stop
         offset="1"
         stop-color="gray"
         stop-opacity="0.1"
         id="stop717" />
    </linearGradient>
    <linearGradient
       id="a1de9c2c-a914-4f57-a703-6b671b828453"
       x1="473.94"
       y1="635.65002"
       x2="473.94"
       y2="301.64999"
       xlink:href="#deacd444-d5db-4c24-9492-02e57292be3c"
       gradientTransform="translate(-29.59117,-209)" />
    <linearGradient
       id="33ead0d0-8f65-4117-bca2-44ecb419ecb0"
       x1="363.44"
       y1="662.65002"
       x2="363.44"
       y2="401.64999"
       xlink:href="#deacd444-d5db-4c24-9492-02e57292be3c"
       gradientTransform="translate(-29.59117,-209)" />
    <linearGradient
       id="9a5964b5-9011-4675-8f60-8033350848c0"
       x1="849.67999"
       y1="703.65997"
       x2="849.67999"
       y2="385.5"
       xlink:href="#deacd444-d5db-4c24-9492-02e57292be3c"
       gradientTransform="translate(-357.40999,-166.86564)" />
  </defs>
  <metadata
     id="metadata5">
    <rdf:RDF>
      <cc:Work
         rdf:about="">
        <dc:format>image/svg+xml</dc:format>
        <dc:type
           rdf:resource="http://purl.org/dc/dcmitype/StillImage" />
        <dc:title></dc:title>
      </cc:Work>
    </rdf:RDF>
  </metadata>
  <g
     id="layer1"
     transform="translate(-3.0754908,-16.325066)">
    <g
       id="g925"
       transform="matrix(0.28052164,0,0,0.27770901,3.0758351,16.325098)">
      <path
         d="m 161.81053,0.07 c -8.61421,-0.23 -17.44218,0 -25.52201,2.32 -21.98442,6.32 -32.40484,27 -29.01687,44.87 3.38797,17.87 17.32462,33.44 31.78496,47.67 14.46034,14.23 30.12838,28.3 38.05859,45.31 3.95441,8.49 5.80337,18 1.78483,26.48 -6.19882,13.07 -24.89145,20.37 -42.83595,21.89 -17.9445,1.52 -35.96382,-1.44 -53.972446,-2.43 -7.556142,-0.41 -15.326036,-0.46 -22.443985,1.45 -7.812645,2.08 -14.321401,6.33 -20.306464,10.76 -23.352433,17.38 -42.0450665,41.09 -39.02047224,66 3.42003594,28.23 33.92248124,50.54 67.33195724,62.51 11.061679,4 22.764614,7.18 32.50103,12.84 25.65027,14.93 31.41089,42.93 28.85655,67.64 -2.55434,24.71 -11.25405,49.45 -6.41257,73.94 5.6965,28.49 30.90858,54.23 64.91656,66.25 30.29938,10.71 68.21903,10 95.11975,-5.11 13.1137,-7.38 23.03181,-17.63 31.65671,-28.23 a 243.39968,227.74 0 0 0 31.47502,-51 c 3.75135,-8.49 7.27826,-17.62 16.03142,-23.52 5.3438,-3.63 12.26937,-5.66 19.12013,-7.24 20.64847,-4.76 42.39776,-6.06 63.23861,-10.3 20.84084,-4.24 41.80994,-12.17 53.1388,-26.27 16.03142,-20 8.55009,-45.62 8.62491,-69.14 0.12825,-53.66 41.79925,-101.69 57.17872,-154 5.02318,-17.09 6.89351,-36 -4.32848,-51.25 C 551.14956,111.16 538.29236,103.69 524.78322,97.92 495.06097,85.23 461.27743,79.58 428.04964,74.08 381.86847,66.44 325.79057,65.45 289.99776,40.73 255.64777,17 208.65434,0.07 161.81053,0.07 Z"
         fill="#f39f0a"
         opacity="0.2"
         id="path727"
         style="stroke-width:1.03381" />
      <ellipse
         cx="478.72958"
         cy="487.48001"
         rx="372.72958"
         ry="124.52"
         fill="#f5f5f5"
         id="ellipse729"
         style="stroke-width:0.895304" />
      <path
         d="m 681.76998,163.99436 c 0,0 -35.83,35.83 -15.6,89 20.23,53.17 -34.68,141.59 -34.68,141.59 0,0 0.59,-0.09 1.68,-0.28 73.59,-13 110.15973,-97.16 69.24,-159.69 -15.21,-23.24 -27.7,-50.48 -20.64,-70.62 z"
         fill="#f39f0a"
         id="path731" />
      <path
         d="m 681.76998,163.99436 c 0,0 -20.23,43.92 0,79.75 20.23,35.83 3.47,136.39 -50.28,150.84"
         fill="none"
         stroke="#535461"
         stroke-miterlimit="10"
         stroke-width="2"
         id="path733" />
      <path
         d="m 771.99883,297.49154 c 0,0 -40.88967,-6.51 -44.60967,30.13 -3.72,36.64 -78.62,41.72 -78.62,41.72 l 1.4,0.93 c 61.84,40.59 120.9997,25.86 111.99985,-28 -3.26997,-20.08 -2.99997,-40.21 9.82982,-44.78 z"
         fill="#f39f0a"
         id="path735" />
      <path
         d="m 771.99883,297.49154 c 0,0 -40.88967,-6.51 -44.60967,30.13 -3.72,36.64 -78.62,41.72 -78.62,41.72 l 1.4,0.93 c 61.84,40.59 120.9997,25.86 111.99985,-28 -3.26997,-20.08 -2.99997,-40.21 9.82982,-44.78 z"
         fill="#f5f5f5"
         opacity="0.2"
         id="path737" />
      <path
         d="m 771.99883,297.49154 c 0,0 -31.73967,7 -29.12967,35.82 2.61,28.82 -47.13,63.45 -94.1,36"
         fill="none"
         stroke="#535461"
         stroke-miterlimit="10"
         stroke-width="2"
         id="path739" />
      <circle
         cx="646.0199"
         cy="59.879997"
         r="4.4499998"
         fill="#ffffff"
         id="circle747" />
      <circle
         cx="320.84991"
         cy="206.64999"
         r="1"
         fill="#ffffff"
         id="circle767" />
      <path
         d="m 256.13862,471.25 c 0,0 -13.26,-45 2.49,-78.14 a 71.09,71.09 0 0 0 5.78,-44.61 119.57,119.57 0 0 0 -6.31,-20.93"
         fill="none"
         stroke="#535461"
         stroke-miterlimit="10"
         stroke-width="2"
         id="path773" />
      <path
         d="m 267.85862,306.63 c 0,5.52 -10,21.51 -10,21.51 0,0 -10,-16 -10,-21.51 a 10,10 0 0 1 20,0 z"
         fill="#f39f0a"
         id="path775" />
      <path
         d="m 284.40862,337.19 c -3,4.63 -20.08,12.63 -20.08,12.63 0,0 0.31,-18.86 3.31,-23.49 a 10,10 0 1 1 16.77,10.86 z"
         fill="#f39f0a"
         id="path777" />
      <path
         d="m 283.64862,389.4 c -4.93,2.48 -23.71,0.77 -23.71,0.77 0,0 9.79,-16.12 14.71,-18.6 a 10,10 0 0 1 9,17.84 z"
         fill="#f39f0a"
         id="path779" />
      <path
         d="m 274.20862,428.79 c -4.44,3.28 -23.24,4.76 -23.24,4.76 0,0 6.92,-17.54 11.36,-20.82 a 10,10 0 0 1 11.88,16.06 z"
         fill="#f39f0a"
         id="path781" />
      <path
         d="m 243.31862,350.89 c 4,3.84 22.39,7.83 22.39,7.83 0,0 -4.51,-18.31 -8.47,-22.15 a 10,10 0 1 0 -13.92,14.33 z"
         fill="#f39f0a"
         id="path783" />
      <path
         d="m 232.85862,397.09 c 4.93,2.48 23.71,0.77 23.71,0.77 0,0 -9.79,-16.12 -14.71,-18.6 a 10,10 0 1 0 -9,17.84 z"
         fill="#f39f0a"
         id="path785" />
      <path
         d="m 228.85862,443.39 c 4.44,3.28 23.24,4.76 23.24,4.76 0,0 -6.92,-17.54 -11.36,-20.82 a 10,10 0 0 0 -11.88,16.06 z"
         fill="#f39f0a"
         id="path787" />
      <path
         d="m 719.58998,370.23436 c -11.07,-13.43 -24.48,-28.86 -22.6,-46.73 1.52,-14.47 -2.12,-27.85 -1.4,-42.37 1,-20.63 -3.14,-36.78 -18,-50 -8.68,-7.73 -23.19,-13.8 -27.51,-12.25 -8.56,3.06 -17.9,1.89 -26.71,4 -6.69,1.56 -11.14,4 -13.9,7 -5.55,5 -5.64,12 -3.11,19.45 a 32.85,32.85 0 0 0 16.23,46.08 c -6.17,2.58 -11.5,8.52 -13.58,20.58 a 140.68,140.68 0 0 1 -6.53,24.31 39.51,39.51 0 0 1 -4,1.61 c 0.3,0.12 0.61,0.2 0.91,0.31 -0.65,0.25 -1.29,0.5 -2,0.72 a 21.21,21.21 0 0 0 3.65,1.06 c -8,20.21 -18,32.73 -18,32.73 0,0 -18.65,4.12 -25.9,-3.09 0,0 1.18,1.38 2.78,3.45 -7.09,-2.94 -18.73,-7.74 -28.68,-11.69 -7.22,-2.87 -9.07,0 -9,4 a 13.32,13.32 0 0 0 -5,1.68 48.67,48.67 0 0 0 -6.69,-3.6 c -4.14,-1 -17.61,-8.24 -31.08,16.47 -7.84,14.37 -27.94,40.6 -43.39,60 -30.05,13.82 -69.17,31.32 -83.71,35.72 h -9.32 c -1.22,-2 -2.07,-3.26 -2.07,-3.26 l -0.72,0.48 -0.31,-0.48 c 0,0 -18.3,12.67 -36.88,12.77 a 35,35 0 0 1 -7.84,-1 c -8.54,-2.15 -14.56,-3.11 -18.86,-3 -5.09,-0.09 -8,1.12 -9.76,3.4 v 0 a 8.94,8.94 0 0 0 -0.65,0.94 v 0 a 11.05,11.05 0 0 0 -0.54,1 v 0 c -0.16,0.36 -0.32,0.74 -0.46,1.13 a 2.32,2.32 0 0 0 0.58,1.95 10.42,10.42 0 0 0 0.81,1 l 0.52,0.56 c 2.34,2.42 6.6,5.63 11.9,9.21 1.53,1 3.15,2.1 4.84,3.19 l 3.21,2 2.87,1.79 1.15,0.71 1.28,0.78 2.29,1.39 1.36,0.82 2.57,1.53 2.08,1.23 c 5.44,3.21 10.86,6.32 15.75,9.08 l 3.42,2.04 0.33,0.18 2.2,1.23 3.8,2.11 2.61,1.44 1.22,0.67 1.31,0.72 0.26,0.14 2.28,1.24 a 3.3,3.3 0 0 0 2.66,-0.72 c 0.66,-2.8 2.27,-8.8 4,-9.26 1.73,-0.46 9.22,-13.55 11.33,-22.31 h 20.22 a 89.13,89.13 0 0 0 11.84,-1.82 c -5.22,3.72 -10.39,6.06 -14.41,5.06 -8.5,-2.11 -16.55,3.07 -17.36,8.18 0,0.11 -0.07,0.21 -0.1,0.32 -0.03,0.11 -0.05,0.21 -0.07,0.31 -0.02,0.1 -0.06,0.25 -0.08,0.38 -0.02,0.13 0,0.21 0,0.32 0,0.11 0,0.25 0,0.38 0,0.13 0,0.21 0,0.31 0,0.1 0,0.26 0,0.39 0,0.13 0,0.2 0,0.3 0,0.1 0.06,0.27 0.1,0.41 0.04,0.14 0,0.18 0.07,0.26 a 5,5 0 0 0 0.22,0.53 l 0.05,0.13 a 5.38,5.38 0 0 0 0.38,0.63 l 0.16,0.21 c 0.1,0.14 0.21,0.28 0.33,0.41 l 0.23,0.23 c 0.12,0.12 0.25,0.24 0.38,0.36 l 0.28,0.23 0.45,0.33 0.33,0.22 0.54,0.32 0.36,0.19 0.68,0.32 0.34,0.15 c 0.36,0.15 0.74,0.29 1.15,0.42 0.65,0.21 1.42,0.43 2.29,0.65 l 0.87,0.21 1.27,0.29 0.67,0.15 q 1.3,0.28 2.76,0.56 l 1.35,0.25 1.1,0.2 2.53,0.44 c 1.58,0.27 3.23,0.54 5,0.8 l 4.36,0.66 5.68,0.81 1.26,0.17 2,0.28 2.93,0.39 2,0.26 v 0 l 5.19,0.66 1.62,0.2 3.27,0.4 c 4.3,0.52 8.46,1 12.29,1.43 l 4.43,0.5 2.24,0.25 1,0.1 2.68,0.29 1.49,0.16 1.84,0.19 2.59,0.27 h 0.28 l 1.66,0.17 v 0 a 1.51,1.51 0 0 0 1.67,-1.47 v 0 0 c 0,-0.05 0,-0.11 0,-0.17 a 1.46,1.46 0 0 0 0.24,-0.78 34,34 0 0 1 0.93,-7.32 c 0.11,-0.41 0.24,-0.83 0.38,-1.25 l 0.16,-0.48 c 0.18,-0.51 0.36,-1 0.57,-1.55 a 11.12,11.12 0 0 0 0.39,-1.14 c 0,-0.12 0.07,-0.24 0.11,-0.37 0.04,-0.13 0.1,-0.41 0.14,-0.62 2.08,-7.11 -0.43,-20.37 -1.15,-25.58 a 27.77,27.77 0 0 0 -1.14,-4.9 2,2 0 0 0 0.39,0 11.79,11.79 0 0 0 3,-1.63 c 15.28,-5.45 28.16,-11.68 32.23,-17.92 a 27.91,27.91 0 0 1 19.68,2.06 c 7.91,3.93 67.75,23.46 95.61,32.48 5,4.31 8.92,6.83 11.09,6.64 0,0 35.47,5.74 49.73,-5.46 1.27,0.88 2.07,1.35 2.07,1.35 0,0 20.72,-10.29 23.83,-23.68 1,-4.34 1.91,-10.74 2.84,-17.82 a 25.91,25.91 0 0 0 7.52,-18.21 c 0.65,-22.48 9.36,-48.16 15.82,-71 7.84,0.62 10.87,-0.86 18.06,-4.41 l -0.32,-0.41 c 0.51,-0.3 0.96,-0.5 1.41,-0.72 z m -118.79,33.67 -4,-1.33 a 33,33 0 0 0 3.45,-5.74 z m -22.29,9.46 24,14.4 0.21,2.93 a 21,21 0 0 0 0.2,6.7 c -10.58,-9.4 -22.96,-20.81 -24.42,-24.04 z m -9.8,-21 c -2.62,-1.08 -4.79,-2.06 -6.28,-2.87 2,0.14 3.9,0.26 5.56,0.35 a 12.44,12.44 0 0 1 0.72,2.52 z m -64.28,23.47 c 0,0 4.14,-9.26 13.47,6.18 1.45,2.4 4.12,6.22 7.65,10.95 l -27.16,-3.63 c 3.2,-4.96 5.35,-9.57 6.04,-13.49 z"
         fill="url(#9a5964b5-9011-4675-8f60-8033350848c0)"
         id="path789"
         style="fill:url(#9a5964b5-9011-4675-8f60-8033350848c0)" />
      <path
         d="m 564.08998,378.63436 c 0,0 -19,-8 -34,-14 -15,-6 -6,14 -6,14 0,0 25,7 25,8 0,1 21,2 21,2 z"
         fill="#f7c4a7"
         id="path791" />
      <path
         d="m 564.08998,378.63436 c 0,0 -19,-8 -34,-14 -15,-6 -6,14 -6,14 0,0 25,7 25,8 0,1 21,2 21,2 z"
         opacity="0.05"
         id="path793" />
      <path
         d="m 645.08998,299.63436 c 0,0 -34,-18 -40,17 -6,35 -25,59 -25,59 0,0 -18,4 -25,-3 0,0 17,20 9,22 0,0 18,13 26,9 8,-4 14,-31 17,-38 3,-7 14,-68 38,-66 z"
         fill="#575988"
         id="path795" />
      <path
         d="m 645.08998,299.63436 c 0,0 -34,-18 -40,17 -6,35 -25,59 -25,59 0,0 -18,4 -25,-3 0,0 17,20 9,22 0,0 18,13 26,9 8,-4 14,-31 17,-38 3,-7 14,-68 38,-66 z"
         opacity="0.1"
         id="path797" />
      <path
         d="m 626.08998,287.63436 c 0,0 21,24 22,44 1,20 24,-21 26,-22 2,-1 -20,-35 -22,-46 -2,-11 -26,24 -26,24 z"
         fill="#f7c4a7"
         id="path799" />
      <polygon
         points="924,326 916,320.75 902.75,332.75 909,358 926,342 "
         fill="#f7c4a7"
         id="polygon801"
         transform="translate(-275.40986,-22.865662)" />
      <polygon
         points="625.5,520.5 647.5,514.5 639.5,498.5 616.5,498.5 "
         fill="#f7c4a7"
         id="polygon803"
         transform="translate(-83.409722,-87.865664)" />
      <path
         d="m 346.40998,472.46436 c 0,0 -23.82,16.59 -44.17,11.43 -20.35,-5.16 -25.88,-3.23 -28.25,3.43 -2.19,6.13 56.84,38.55 66.25,43.67 a 1.08,1.08 0 0 0 1.57,-0.7 c 0.64,-2.72 2.19,-8.55 3.85,-9 2.16,-0.58 12,-19 11.46,-26.24 -0.54,-7.24 -10.71,-22.59 -10.71,-22.59 z"
         opacity="0.1"
         id="path805" />
      <path
         d="m 345.40998,472.46436 c 0,0 -23.82,16.59 -44.17,11.43 -20.35,-5.16 -25.88,-3.23 -28.25,3.43 -2.19,6.13 56.84,38.55 66.25,43.67 a 1.08,1.08 0 0 0 1.57,-0.7 c 0.64,-2.72 2.19,-8.55 3.85,-9 2.16,-0.58 12,-19 11.46,-26.24 -0.54,-7.24 -10.71,-22.59 -10.71,-22.59 z"
         fill="#f3b5b7"
         id="path807" />
      <path
         d="m 542.08998,432.63436 -67,-9 c 0,0 -109,52 -122,53 l 3,23 h 20 c 8,0 86,-17 97,-34 a 26.78,26.78 0 0 1 19,2 c 10,5 106,36 106,36 z"
         fill="#575988"
         id="path809" />
      <path
         d="m 545.12013,140.4774 h -2.18735 V 80.202136 a 34.680936,34.885672 0 0 0 -34.6809,-34.88571 h -126.9519 a 34.680931,34.885667 0 0 0 -34.68101,34.8856 V 410.87688 a 34.680948,34.885684 0 0 0 34.68091,34.88571 h 126.95183 a 34.680948,34.885684 0 0 0 34.68104,-34.88557 V 183.38235 h 2.18738 z"
         fill="#3f3d56"
         id="path1594"
         style="stroke-width:0.567988" />
      <polygon
         points="687.5,500.5 698.5,506.5 714.5,494.5 698.5,486.5 "
         fill="#f7c4a7"
         id="polygon813"
         transform="translate(-275.40986,-22.865662)" />
      <path
         d="m 507.52817,54.392476 h -16.35562 a 12.144501,12.37737 0 0 1 -11.24414,17.05196 h -71.78204 a 12.144479,12.377348 0 0 1 -11.24415,-17.05198 h -15.27619 a 25.562093,26.052242 0 0 0 -25.56211,26.0522 V 410.63431 a 25.562087,26.052236 0 0 0 25.56207,26.05225 h 125.90218 a 25.562093,26.052242 0 0 0 25.56211,-26.05222 v 0 -330.189654 a 25.56207,26.052219 0 0 0 -25.56211,-26.05221 z"
         fill="#ffffff"
         id="path1596"
         style="stroke-width:0.564278" />
      <path
         d="m 614.08998,447.63436 c 0,0 -36,-30.82 -38.49,-36.41 -2.49,-5.59 -61.51,-43.59 -65.51,-44.59 -4,-1 -17,-8 -30,16 -13,24 -61,82 -61,82 0,0 15,21 20,20 5,-1 61,-48 65,-71 0,0 4,-9 13,6 9,15 67,87 78,86 0,0 43,7 52,-10 9,-17 -33,-48 -33,-48 z"
         fill="#575988"
         id="path815" />
      <path
         d="m 634.58998,301.13436 c 0,0 -12.5,5.5 -13.5,28.5 -1,23 -23,62 -23,62 l 2,46 c 0,0 24,24 26,39 2,15 19,25 19,25 0,0 20,-10 23,-23 3,-13 5,-45 10,-57 5,-12 2,-87 2,-87 l -15,-26 -8,-9 -21,24 c 0,0 -11.5,-15.5 -1.5,-22.5 z"
         fill="#dddbe2"
         id="path817" />
      <path
         d="m 605.08998,422.63436 c 0,0 -3,-36 6,-44 l 18,-51 c 0,0 6.5,-24.5 5.5,-26.5 -1,-2 -23.5,19.5 -23.5,19.5 l -15,53 4,56 z"
         opacity="0.1"
         id="path819" />
      <path
         d="m 604.08998,422.63436 c 0,0 -3,-36 6,-44 l 18,-51 c 0,0 7,-25 6,-27 -1,-2 -24,20 -24,20 l -15,53 4,56 z"
         fill="#575988"
         id="path821" />
      <path
         d="m 611.08998,406.63436 c 0,0 -50,-16 -53,-20 -3,-4 -35,-30 -46,-12 -11,18 41,23 41,23 l 53,32 z"
         fill="#f7c4a7"
         id="path823" />
      <path
         d="m 425.25998,477.54436 -14.8,-2.66 c 0,0 -24.24,31.05 -36.87,27.9 -12.63,-3.15 -24.25,10.44 -10.91,14.8 12.05,3.94 64.09,9.45 74,10.47 a 1.46,1.46 0 0 0 1.61,-1.42 31.84,31.84 0 0 1 2.3,-11.27 c 2.67,-6.55 0,-20.62 -0.74,-26 a 25.83,25.83 0 0 0 -2.91,-9 z"
         opacity="0.1"
         id="path825" />
      <path
         d="m 425.00998,478.51436 -14.8,-2.66 c 0,0 -24.24,31.05 -36.85,27.91 -12.61,-3.14 -24.25,10.44 -10.91,14.8 12.05,3.94 64.09,9.45 74,10.47 a 1.46,1.46 0 0 0 1.61,-1.42 31.84,31.84 0 0 1 2.21,-11.26 c 2.67,-6.55 0,-20.62 -0.74,-26 a 25.83,25.83 0 0 0 -2.91,-9 z"
         fill="#f3b5b7"
         id="path827" />
      <circle
         cx="633.59253"
         cy="267.13452"
         r="32"
         opacity="0.1"
         id="circle829" />
      <circle
         cx="630.59253"
         cy="267.13452"
         r="32"
         fill="#f7c4a7"
         id="circle831" />
      <path
         d="m 662.08998,298.63436 c 0,0 38,13 38,40 0,27 -21,70 -22,105 -1,35 -56,30 -56,30 0,0 -8,-118 0,-127 8,-9 44,-44 40,-48 z"
         fill="#575988"
         id="path833" />
      <path
         d="m 655.08998,354.63436 c 0,0 -14,62 -47,51 0,0 -17,25 -5,36 0,0 29,7 48,-12 19,-19 33,-26 36,-49 3,-23 5,-55 -5,-52 -10,3 -27,26 -27,26 z"
         opacity="0.1"
         id="path835" />
      <path
         d="m 656.08998,353.63436 c 0,0 -14,62 -47,51 0,0 -17,25 -5,36 0,0 29,7 48,-12 19,-19 33,-26 36,-49 3,-23 5,-55 -5,-52 -10,3 -27,26 -27,26 z"
         fill="#575988"
         id="path837" />
      <path
         d="m 441.12998,513.13436 c 0,0.09 -0.06,0.2 -0.09,0.28 a 29.28,29.28 0 0 0 -1.57,5.29 c 0.24,-0.78 0.52,-1.58 0.84,-2.38 a 14.52,14.52 0 0 0 0.82,-3.19 z"
         fill="#dddbe2"
         id="path839" />
      <path
         d="m 363.17998,515.64436 c -4.12,-1.35 -5.85,-3.57 -5.92,-5.91 -1.7,3.26 -0.63,6.92 5.19,8.82 12.05,3.94 64.1,9.45 74,10.47 a 1.46,1.46 0 0 0 1.61,-1.43 v 0 a 1.47,1.47 0 0 0 -1.31,-1.49 c -10.86,-1.16 -61.68,-6.58 -73.57,-10.46 z"
         fill="#dddbe2"
         id="path841" />
      <path
         d="m 274.36998,485.56436 a 12.32,12.32 0 0 1 1,-2.12 9.75,9.75 0 0 0 -2.35,3.88 c -2.19,6.13 56.84,38.55 66.25,43.67 a 1.08,1.08 0 0 0 1.57,-0.71 v 0 a 1.08,1.08 0 0 0 -0.53,-1.2 c -10.4,-5.69 -68.1,-37.46 -65.94,-43.52 z"
         fill="#dddbe2"
         id="path843" />
      <path
         d="m 538.02998,454.54436 c -0.53,0.14 -1.05,0.85 -1.54,1.82 l 0.16,-0.06 c 0.44,-0.12 1.19,-1 2.1,-2.3 a 1.94,1.94 0 0 1 -0.72,0.54 z"
         fill="#dddbe2"
         id="path845" />
      <path
         d="m 626.14998,295.30436 c -2.82,6.22 -3.41,13.23 -5.48,19.75 -4.11,12.93 -14.42,23.63 -26.77,27.76 10.39,4.14 22.65,-0.92 30.68,-9.32 8.03,-8.4 12.74,-19.58 17.25,-30.46 11.66,7.84 10.24,25.86 14.16,39.89 a 44.24,44.24 0 0 0 23.55,28.15 42.17,42.17 0 0 0 36.07,-0.73 c -10.69,-13 -25.91,-30.93 -24.1,-48.29 1.47,-14.06 -8.62,-24.8 -7.93,-38.91 1,-20 -6.66,-30.16 -21,-43 -8.38,-7.51 4.81,-18.1 -6,-15 -4.25,1.22 -8.73,-3.33 -12.9,-1.83 -8.26,3 -17.28,1.84 -25.78,3.84 -44.18,10.38 12.37,59.07 8.25,68.15 z"
         opacity="0.1"
         id="path847" />
      <path
         d="m 627.14998,294.30436 c -2.82,6.22 -3.41,13.23 -5.48,19.75 -4.11,12.93 -14.42,23.63 -26.77,27.76 10.39,4.14 22.65,-0.92 30.68,-9.32 8.03,-8.4 12.74,-19.58 17.25,-30.46 11.66,7.84 10.24,25.86 14.16,39.89 a 44.24,44.24 0 0 0 23.55,28.15 42.17,42.17 0 0 0 36.07,-0.73 c -10.69,-13 -24.91,-27.93 -23.1,-45.29 1.47,-14.06 -0.72,-28.51 0,-42.61 1,-20 -8.81,-39.32 -23.16,-52.16 -8.38,-7.51 -21.47,-8.47 -25.65,-7 -8.26,3 -17.28,1.84 -25.78,3.84 -44.2,10.41 12.35,59.1 8.23,68.18 z"
         fill="#fc6681"
         id="path849" />
      <path
         d="m 542.08998,432.63436 -67,-9 c 0,0 -109,52 -122,53 l 3,23 h 20 c 8,0 86,-17 97,-34 a 26.78,26.78 0 0 1 19,2 c 10,5 106,36 106,36 z"
         opacity="0.1"
         id="path811" />
    </g>
  </g>
</svg>
