<?xml version="1.0" encoding="UTF-8" standalone="no"?>
<svg
   xmlns:dc="http://purl.org/dc/elements/1.1/"
   xmlns:cc="http://creativecommons.org/ns#"
   xmlns:rdf="http://www.w3.org/1999/02/22-rdf-syntax-ns#"
   xmlns:svg="http://www.w3.org/2000/svg"
   xmlns="http://www.w3.org/2000/svg"
   xmlns:xlink="http://www.w3.org/1999/xlink"
   xmlns:sodipodi="http://sodipodi.sourceforge.net/DTD/sodipodi-0.dtd"
   xmlns:inkscape="http://www.inkscape.org/namespaces/inkscape"
   width="238.85307mm"
   height="169.95795mm"
   viewBox="0 0 238.85307 169.95795"
   version="1.1"
   id="svg8"
   inkscape:version="1.0.2 (e86c8708, 2021-01-15)"
   sodipodi:docname="hero-bg.svg"
   inkscape:export-filename="/Users/andreapirrone/bitmap.png"
   inkscape:export-xdpi="96"
   inkscape:export-ydpi="96">
  <defs
     id="defs2">
    <linearGradient
       id="deacd444-d5db-4c24-9492-02e57292be3c"
       x1="675.04999"
       y1="606.02002"
       x2="675.04999"
       y2="240.27"
       gradientUnits="userSpaceOnUse">
      <stop
         offset="0"
         stop-color="gray"
         stop-opacity="0.25"
         id="stop713" />
      <stop
         offset="0.54"
         stop-color="gray"
         stop-opacity="0.12"
         id="stop715" />
      <stop
         offset="1"
         stop-color="gray"
         stop-opacity="0.1"
         id="stop717" />
    </linearGradient>
    <linearGradient
       id="a1de9c2c-a914-4f57-a703-6b671b828453"
       x1="473.94"
       y1="635.65002"
       x2="473.94"
       y2="301.64999"
       xlink:href="#deacd444-d5db-4c24-9492-02e57292be3c"
       gradientTransform="translate(-29.59117,-209)" />
    <linearGradient
       id="33ead0d0-8f65-4117-bca2-44ecb419ecb0"
       x1="363.44"
       y1="662.65002"
       x2="363.44"
       y2="401.64999"
       xlink:href="#deacd444-d5db-4c24-9492-02e57292be3c"
       gradientTransform="translate(-29.59117,-209)" />
    <linearGradient
       id="9a5964b5-9011-4675-8f60-8033350848c0"
       x1="849.67999"
       y1="703.65997"
       x2="849.67999"
       y2="385.5"
       xlink:href="#deacd444-d5db-4c24-9492-02e57292be3c"
       gradientTransform="matrix(0.75241555,0,0,0.74713177,-176.32794,-51.335665)" />
  </defs>
  <sodipodi:namedview
     id="base"
     pagecolor="#ffffff"
     bordercolor="#666666"
     borderopacity="1.0"
     inkscape:pageopacity="0.0"
     inkscape:pageshadow="2"
     inkscape:zoom="0.76954984"
     inkscape:cx="477.19557"
     inkscape:cy="337.88941"
     inkscape:document-units="mm"
     inkscape:current-layer="g925"
     inkscape:document-rotation="0"
     showgrid="false"
     fit-margin-top="0"
     fit-margin-left="0"
     fit-margin-right="0"
     fit-margin-bottom="0"
     inkscape:window-width="1440"
     inkscape:window-height="900"
     inkscape:window-x="0"
     inkscape:window-y="0"
     inkscape:window-maximized="0" />
  <metadata
     id="metadata5">
    <rdf:RDF>
      <cc:Work
         rdf:about="">
        <dc:format>image/svg+xml</dc:format>
        <dc:type
           rdf:resource="http://purl.org/dc/dcmitype/StillImage" />
        <dc:title></dc:title>
      </cc:Work>
    </rdf:RDF>
  </metadata>
  <g
     inkscape:label="Layer 1"
     inkscape:groupmode="layer"
     id="layer1"
     transform="translate(-3.0754908,-16.325066)">
    <g
       id="g925"
       transform="matrix(0.28052164,0,0,0.27770901,3.0758351,16.325098)">
      <path
         d="m 233.57705,38.726431 c -7.50548,-0.186211 -15.19721,0 -22.2371,1.8783 -19.15482,5.116745 -28.23402,21.859517 -25.28212,36.327262 2.95191,14.467756 15.09479,27.073407 27.69394,38.594187 12.59917,11.52077 26.25058,22.91202 33.1601,36.68352 3.44544,6.8736 5.05643,14.573 1.5551,21.43851 -5.40097,10.58162 -21.68768,16.4918 -37.32255,17.72241 -15.63489,1.2306 -31.33495,-1.16586 -47.02571,-1.96737 -6.58358,-0.33194 -13.35343,-0.37241 -19.55523,1.17394 -6.80708,1.68399 -12.47809,5.12484 -17.69284,8.71143 -20.34679,14.07104 -36.633509,33.26694 -33.998207,53.43437 2.979844,22.85534 29.556367,40.91778 58.665757,50.60882 9.63793,3.23845 19.8346,5.81302 28.31783,10.39542 22.34885,12.08751 27.36803,34.75663 25.14245,54.76214 -2.22557,20.00551 -9.80555,40.0353 -5.58722,59.86269 4.96332,23.06584 26.93037,43.90525 56.56121,53.63679 26.39956,8.67094 59.43861,8.09612 82.87695,-4.13712 11.42584,-5.97494 20.0674,-14.27346 27.5822,-22.85535 a 212.07188,184.38098 0 0 0 27.42388,-41.29019 c 3.26853,-6.87361 6.34148,-14.26536 13.96803,-19.04206 4.656,-2.9389 10.69019,-4.58242 16.6592,-5.8616 17.99082,-3.85375 36.94077,-4.90625 55.0992,-8.339 18.15843,-3.43276 36.42862,-9.85297 46.29935,-21.2685 13.96801,-16.19224 7.44961,-36.93449 7.5148,-55.97656 0.11175,-43.44376 36.41929,-82.32941 49.81929,-124.6802 4.37664,-13.83627 6.00625,-29.14603 -3.77138,-41.49261 -6.63946,-8.37948 -17.84182,-14.42727 -29.61221,-19.09873 -25.89672,-10.27398 -55.332,-14.8483 -84.28306,-19.301155 C 425.31148,92.460349 376.45132,91.658834 345.26539,71.645239 315.33656,52.433158 274.39163,38.726431 233.57705,38.726431 Z"
         fill="#f39f0a"
         opacity="0.2"
         id="path727"
         style="stroke-width:0.868281" />
      <ellipse
         cx="452.79623"
         cy="437.54666"
         rx="280.44754"
         ry="93.032845"
         fill="#f5f5f5"
         id="ellipse729"
         style="stroke-width:0.671271" />
      <path
         d="m 528.29778,179.71371 h -1.6458 v -45.03356 a 26.094476,26.064194 0 0 0 -26.09445,-26.06422 h -95.52058 a 26.094472,26.064191 0 0 0 -26.09453,26.06413 v 247.05769 a 26.094485,26.064203 0 0 0 26.09445,26.06423 h 95.52053 a 26.094485,26.064203 0 0 0 26.09456,-26.06413 V 211.76936 h 1.64582 z"
         fill="#3f3d56"
         id="path1594"
         style="fill:#535461;fill-opacity:1;stroke-width:0.42586" />
      <path
         d="m 605.56723,195.86034 c 0,0 -26.95905,26.76973 -11.73768,66.49473 15.22136,39.725 -26.09377,105.78638 -26.09377,105.78638 0,0 0.44392,-0.0672 1.26405,-0.2092 55.37027,-9.71271 82.88591,-72.59132 52.09726,-119.30947 -11.44424,-17.36334 -20.84191,-37.71521 -15.52986,-52.76244 z"
         fill="#f39f0a"
         id="path731"
         style="stroke-width:0.749769" />
      <path
         d="m 605.56723,195.86034 c 0,0 -15.22136,32.81403 0,59.58375 15.22137,26.76974 2.61088,101.90131 -37.83145,112.69736"
         fill="none"
         stroke="#535461"
         stroke-miterlimit="10"
         stroke-width="0.924432"
         id="path733" />
      <path
         d="m 673.45683,295.60033 c 0,0 -30.76603,-4.86383 -33.56502,22.51107 -2.79898,27.37491 -59.1549,31.17035 -59.1549,31.17035 l 1.05337,0.69483 c 46.52939,30.32607 91.04206,19.32082 84.27044,-20.9197 -2.46039,-15.0024 -2.25723,-30.04216 7.39611,-33.45655 z"
         fill="#f39f0a"
         id="path735"
         style="stroke-width:0.749769" />
      <path
         d="m 673.45683,295.60033 c 0,0 -30.76603,-4.86383 -33.56502,22.51107 -2.79898,27.37491 -59.1549,31.17035 -59.1549,31.17035 l 1.05337,0.69483 c 46.52939,30.32607 91.04206,19.32082 84.27044,-20.9197 -2.46039,-15.0024 -2.25723,-30.04216 7.39611,-33.45655 z"
         fill="#f5f5f5"
         opacity="0.2"
         id="path737"
         style="stroke-width:0.749769" />
      <path
         d="m 673.45683,295.60033 c 0,0 -23.88143,5.22992 -21.91762,26.76226 1.9638,21.53233 -35.46134,47.4055 -70.8023,26.89674"
         fill="none"
         stroke="#535461"
         stroke-miterlimit="10"
         stroke-width="0.924432"
         id="path739" />
      <ellipse
         cx="578.66809"
         cy="118.0732"
         fill="#ffffff"
         id="circle747"
         rx="3.3482492"
         ry="3.3247364"
         style="stroke-width:0.749769" />
      <ellipse
         cx="334.00513"
         cy="227.72972"
         fill="#ffffff"
         id="circle767"
         rx="0.7524156"
         ry="0.74713176"
         style="stroke-width:0.749769" />
      <path
         d="m 285.31558,425.42079 c 0,0 -9.97703,-33.62093 1.87351,-58.38087 a 53.489222,53.113597 0 0 0 4.34897,-33.32956 89.966328,89.334546 0 0 0 -4.74775,-15.63747"
         fill="none"
         stroke="#535461"
         stroke-miterlimit="10"
         stroke-width="0.924432"
         id="path773" />
      <path
         d="m 294.13389,302.42796 c 0,4.12417 -7.52416,16.0708 -7.52416,16.0708 0,0 -7.52415,-11.95411 -7.52415,-16.0708 a 7.5241556,7.4713177 0 0 1 15.04831,0 z"
         fill="#f39f0a"
         id="path775"
         style="stroke-width:0.749769" />
      <path
         d="m 306.58637,325.2603 c -2.25726,3.45922 -15.10851,9.43628 -15.10851,9.43628 0,0 0.23325,-14.09091 2.49049,-17.55012 a 7.5241556,7.4713177 0 1 1 12.61802,8.11384 z"
         fill="#f39f0a"
         id="path777"
         style="stroke-width:0.749769" />
      <path
         d="m 306.01453,364.26805 c -3.70941,1.85289 -17.83978,0.57529 -17.83978,0.57529 0,0 7.36615,-12.04376 11.06804,-13.89665 a 7.5241556,7.4713177 0 0 1 6.77174,13.32883 z"
         fill="#f39f0a"
         id="path779"
         style="stroke-width:0.749769" />
      <path
         d="m 298.91173,393.69757 c -3.34072,2.4506 -17.48614,3.55635 -17.48614,3.55635 0,0 5.20671,-13.10469 8.54744,-15.55528 a 7.5241556,7.4713177 0 0 1 8.9387,11.99893 z"
         fill="#f39f0a"
         id="path781"
         style="stroke-width:0.749769" />
      <path
         d="m 275.66961,335.49601 c 3.00966,2.86899 16.84658,5.85004 16.84658,5.85004 0,0 -3.39339,-13.67999 -6.37296,-16.54896 a 7.5241556,7.4713177 0 1 0 -10.47362,10.70639 z"
         fill="#f39f0a"
         id="path783"
         style="stroke-width:0.749769" />
      <path
         d="m 267.79934,370.0135 c 3.70941,1.85288 17.83977,0.57529 17.83977,0.57529 0,0 -7.36614,-12.04377 -11.06802,-13.89665 a 7.5241556,7.4713177 0 1 0 -6.77175,13.32883 z"
         fill="#f39f0a"
         id="path785"
         style="stroke-width:0.749769" />
      <path
         d="m 264.78968,404.60569 c 3.34073,2.4506 17.48614,3.55636 17.48614,3.55636 0,0 -5.20672,-13.1047 -8.54744,-15.55529 a 7.5241556,7.4713177 0 0 0 -8.9387,11.99893 z"
         fill="#f39f0a"
         id="path787"
         style="stroke-width:0.749769" />
      <path
         d="m 634.02359,349.94879 c -8.32924,-10.03397 -18.41913,-21.56222 -17.00459,-34.91346 1.14367,-10.811 -1.59513,-20.80762 -1.05338,-31.65597 0.75241,-15.41333 -2.36259,-27.47952 -13.54348,-37.3566 -6.53097,-5.77532 -17.44852,-10.31042 -20.69896,-9.15236 -6.44067,2.28622 -13.46823,1.41208 -20.09701,2.98852 -5.03367,1.16553 -8.38191,2.98854 -10.45858,5.22993 -4.1759,3.73566 -4.24362,8.96558 -2.34001,14.53172 a 24.716851,24.543279 0 0 0 12.21171,34.42783 c -4.64242,1.9276 -8.65279,6.36556 -10.21782,15.37597 a 105.84982,105.1065 0 0 1 -4.91326,18.16277 29.727939,29.519176 0 0 1 -3.00967,1.20289 c 0.22573,0.0896 0.45897,0.14942 0.6847,0.2316 -0.48907,0.18679 -0.97062,0.37357 -1.50483,0.53794 a 15.958734,15.846665 0 0 0 2.74632,0.79196 c -6.01932,15.09954 -13.54348,24.45362 -13.54348,24.45362 0,0 -14.03255,3.07818 -19.48756,-2.30864 0,0 0.88785,1.03104 2.0917,2.57761 -5.33462,-2.19657 -14.09273,-5.7828 -21.57927,-8.73397 -5.43244,-2.14427 -6.82441,0 -6.77174,2.98852 a 10.022175,9.9517949 0 0 0 -3.76208,1.25519 36.620065,36.362904 0 0 0 -5.03365,-2.68968 c -3.115,-0.74713 -13.25004,-6.15636 -23.38508,12.30527 -5.89894,10.73628 -21.0225,30.33354 -32.64731,44.82789 -22.61009,10.32537 -52.04459,23.40017 -62.98471,26.68756 h -7.01252 c -0.91794,-1.49427 -1.55749,-2.43565 -1.55749,-2.43565 l -0.54175,0.35862 -0.23324,-0.35862 c 0,0 -13.76921,9.46616 -27.74909,9.54087 a 26.334544,26.149612 0 0 1 -5.89893,-0.74713 c -6.42563,-1.60633 -10.95518,-2.32358 -14.19056,-2.2414 -3.8298,-0.0672 -6.01932,0.83679 -7.34358,2.54025 v 0 a 6.7265951,6.679358 0 0 0 -0.48906,0.70231 v 0 a 8.3141919,8.2558061 0 0 0 -0.40631,0.74713 v 0 c -0.12039,0.26896 -0.24077,0.55288 -0.34612,0.84426 a 1.7456041,1.7333457 0 0 0 0.43641,1.4569 7.8401701,7.785113 0 0 0 0.60946,0.74714 l 0.39125,0.41838 c 1.76065,1.80807 4.96595,4.20636 8.95375,6.88109 1.15119,0.74713 2.3701,1.56898 3.64169,2.38335 l 2.41525,1.49426 2.15943,1.33737 0.86528,0.53046 0.96309,0.58276 1.72303,1.03852 1.02329,0.61265 1.93371,1.14311 1.56503,0.91897 c 4.09313,2.39829 8.17122,4.72187 11.85054,6.78396 l 2.57326,1.52415 0.24829,0.13448 1.65532,0.91898 2.85917,1.57644 1.96382,1.07587 0.91794,0.50058 0.98567,0.53794 0.19563,0.10459 1.7155,0.92645 a 2.4829713,2.4655349 0 0 0 2.00143,-0.53794 c 0.49659,-2.09197 1.70797,-6.57476 3.00965,-6.91844 1.30168,-0.34368 6.93728,-10.12364 8.52487,-16.66851 h 15.21385 a 67.062799,66.591855 0 0 0 8.9086,-1.35977 c -3.92761,2.77932 -7.8176,4.52761 -10.84231,3.78048 -6.39553,-1.57645 -12.45247,2.29369 -13.06194,6.11153 0,0.0822 -0.0527,0.15691 -0.0752,0.23909 -0.0226,0.0822 -0.0376,0.1569 -0.0527,0.23161 -0.0151,0.0747 -0.0452,0.18679 -0.0602,0.28391 -0.0151,0.0971 0,0.15689 0,0.23908 0,0.0822 0,0.18678 0,0.28391 0,0.0971 0,0.1569 0,0.23161 0,0.0747 0,0.19425 0,0.29138 0,0.0971 0,0.14943 0,0.22415 0,0.0747 0.0452,0.20172 0.0752,0.30631 0.0301,0.10461 0,0.13449 0.0527,0.19426 a 3.7620777,3.7356588 0 0 0 0.16553,0.39598 l 0.0376,0.0971 a 4.0479957,4.0195689 0 0 0 0.28592,0.47069 l 0.12039,0.1569 c 0.0752,0.1046 0.15801,0.2092 0.2483,0.30632 l 0.17305,0.17184 c 0.0903,0.0896 0.1881,0.17932 0.28592,0.26897 l 0.21067,0.17185 0.33859,0.24655 0.2483,0.16437 0.4063,0.23908 0.27088,0.14195 0.51164,0.23909 0.25581,0.11206 c 0.27088,0.11207 0.55679,0.21667 0.86528,0.31379 0.48908,0.15691 1.06844,0.32128 1.72304,0.48565 l 0.6546,0.15689 0.95556,0.21667 0.50412,0.11207 q 0.97815,0.2092 2.07667,0.41839 l 1.01576,0.18678 0.82766,0.14943 1.90361,0.32874 c 1.18882,0.20172 2.4303,0.40345 3.76208,0.59771 l 3.28053,0.49311 4.27372,0.60517 0.94804,0.12701 1.50484,0.2092 2.20457,0.29138 1.50483,0.19425 v 0 l 3.90504,0.49311 1.21892,0.14943 2.4604,0.29885 c 3.23538,0.38851 6.36543,0.74713 9.24718,1.0684 l 3.3332,0.37356 1.68542,0.18678 0.75241,0.0747 2.01647,0.21666 1.1211,0.11955 1.38444,0.14195 1.94876,0.20173 h 0.21067 l 1.24902,0.12701 v 0 a 1.1361475,1.128169 0 0 0 1.25653,-1.09828 v 0 0 c 0,-0.0374 0,-0.0822 0,-0.12701 a 1.0985267,1.0908124 0 0 0 0.18058,-0.58276 25.582129,25.40248 0 0 1 0.69975,-5.46902 c 0.0828,-0.30631 0.18058,-0.62011 0.28592,-0.93391 l 0.12039,-0.35862 c 0.13542,-0.38103 0.27086,-0.74713 0.42887,-1.15806 a 8.3668609,8.3081053 0 0 0 0.29344,-0.85172 c 0,-0.0896 0.0527,-0.17932 0.0828,-0.27644 0.0301,-0.0971 0.0752,-0.30633 0.10533,-0.46322 1.56503,-5.31211 -0.32353,-15.21908 -0.86528,-19.11163 a 20.89458,20.747849 0 0 0 -0.85775,-3.66095 1.5048311,1.4942635 0 0 0 0.29344,0 8.8709794,8.8086836 0 0 0 2.25725,-1.21783 c 11.49691,-4.07187 21.18802,-8.7265 24.25035,-13.38859 a 20.999919,20.852447 0 0 1 14.80754,1.53909 c 5.95161,2.93622 50.97616,17.52771 71.93845,24.26683 3.76208,3.22014 6.71155,5.10292 8.34429,4.96096 0,0 26.68818,4.28854 37.41763,-4.07934 0.95556,0.65747 1.55749,1.00863 1.55749,1.00863 0,0 15.59006,-7.68799 17.93007,-17.69208 0.75241,-3.24255 1.43712,-8.0242 2.13686,-13.31389 a 19.495087,19.358184 0 0 0 5.65817,-13.60527 c 0.48906,-16.79552 7.04261,-35.98187 11.90321,-53.04635 5.89893,0.46322 8.17876,-0.64254 13.58863,-3.29486 l -0.24078,-0.30632 c 0.38374,-0.22414 0.72232,-0.37357 1.06091,-0.53794 z m -89.37945,25.15593 -3.00965,-0.99368 a 24.829713,24.655349 0 0 0 2.59582,-4.28854 z m -16.77133,7.06787 18.05797,10.7587 0.158,2.18909 a 15.800727,15.689767 0 0 0 0.15049,5.00578 c -7.96056,-7.02304 -17.27546,-15.5478 -18.37399,-17.96104 z m -7.37368,-15.68977 c -1.97132,-0.8069 -3.60407,-1.53909 -4.72516,-2.14427 1.50482,0.1046 2.93441,0.19425 4.18342,0.2615 a 9.3600494,9.2943196 0 0 1 0.54174,1.88277 z M 472.13386,384.018 c 0,0 3.115,-6.91843 10.13504,4.61728 1.091,1.79312 3.09995,4.64716 5.75597,8.18109 l -20.4356,-2.71209 c 2.40773,-3.70577 4.02542,-7.15004 4.54459,-10.07881 z"
         fill="url(#9a5964b5-9011-4675-8f60-8033350848c0)"
         id="path789"
         style="fill:url(#9a5964b5-9011-4675-8f60-8033350848c0);stroke-width:0.749769" />
      <path
         d="m 500.013,115.39693 h -12.30622 a 9.1377114,9.2475264 0 0 1 -8.46027,12.74006 h -54.00992 a 9.1376949,9.24751 0 0 1 -8.46027,-12.74008 h -11.49404 a 19.233317,19.464458 0 0 0 -19.23334,19.46443 v 246.69517 a 19.233312,19.464453 0 0 0 19.2333,19.46448 H 500.013 a 19.233317,19.464458 0 0 0 19.23333,-19.46445 v 0 -246.69518 A 19.233299,19.46444 0 0 0 500.013,115.39693 Z"
         fill="#ffffff"
         id="path1596"
         style="stroke-width:0.423078" />
      <path
         d="m 517.02297,356.2247 c 0,0 -14.2959,-5.97705 -25.58212,-10.45984 -11.28624,-4.48279 -4.5145,10.45984 -4.5145,10.45984 0,0 18.81039,5.22992 18.81039,5.97705 0,0.74713 15.80072,1.49427 15.80072,1.49427 z"
         fill="#f7c4a7"
         id="path791"
         style="stroke-width:0.749769" />
      <path
         d="m 517.02297,356.2247 c 0,0 -14.2959,-5.97705 -25.58212,-10.45984 -11.28624,-4.48279 -4.5145,10.45984 -4.5145,10.45984 0,0 18.81039,5.22992 18.81039,5.97705 0,0.74713 15.80072,1.49427 15.80072,1.49427 z"
         opacity="0.05"
         id="path793"
         style="stroke-width:0.749769" />
      <path
         d="m 577.96863,297.20129 c 0,0 -25.58213,-13.44837 -30.09662,12.70124 -4.5145,26.14962 -18.81039,44.08077 -18.81039,44.08077 0,0 -13.54348,2.98853 -18.81039,-2.24139 0,0 12.79107,14.94263 6.77174,16.4369 0,0 13.54348,9.71272 19.56281,6.72419 6.01932,-2.98853 10.53381,-23.16109 12.79106,-28.39101 2.25725,-5.22992 10.53382,-50.80496 28.59179,-49.3107 z"
         fill="#575988"
         id="path795"
         style="stroke-width:0.749769" />
      <path
         d="m 577.96863,297.20129 c 0,0 -25.58213,-13.44837 -30.09662,12.70124 -4.5145,26.14962 -18.81039,44.08077 -18.81039,44.08077 0,0 -13.54348,2.98853 -18.81039,-2.24139 0,0 12.79107,14.94263 6.77174,16.4369 0,0 13.54348,9.71272 19.56281,6.72419 6.01932,-2.98853 10.53381,-23.16109 12.79106,-28.39101 2.25725,-5.22992 10.53382,-50.80496 28.59179,-49.3107 z"
         opacity="0.1"
         id="path797"
         style="stroke-width:0.749769" />
      <path
         d="m 563.67274,288.23571 c 0,0 15.80072,17.93116 16.55313,32.8738 0.75243,14.94264 18.05798,-15.68977 19.56282,-16.4369 1.50482,-0.74713 -15.04832,-26.14961 -16.55315,-34.36806 -1.50483,-8.21846 -19.5628,17.93116 -19.5628,17.93116 z"
         fill="#f7c4a7"
         id="path799"
         style="stroke-width:0.749769" />
      <polygon
         points="909,358 926,342 924,326 916,320.75 902.75,332.75 "
         fill="#f7c4a7"
         id="polygon801"
         transform="matrix(0.75241556,0,0,0.74713177,-114.62977,56.251295)" />
      <polygon
         points="639.5,498.5 616.5,498.5 625.5,520.5 647.5,514.5 "
         fill="#f7c4a7"
         id="polygon803"
         transform="matrix(0.75241556,0,0,0.74713177,29.834077,7.6877264)" />
      <path
         d="m 353.23715,426.32808 c 0,0 -17.92253,12.39491 -33.2342,8.53971 -15.31165,-3.8552 -19.4725,-2.41324 -21.25573,2.56266 -1.64779,4.57992 42.7673,28.80193 49.84753,32.62725 a 0.8126088,0.80690231 0 0 0 1.1813,-0.52299 c 0.48154,-2.0322 1.64778,-6.38798 2.8968,-6.72419 1.62521,-0.43334 9.02898,-14.19551 8.62268,-19.60474 -0.40631,-5.40923 -8.05838,-16.8777 -8.05838,-16.8777 z"
         opacity="0.1"
         id="path805"
         style="stroke-width:0.749769" />
      <path
         d="m 352.48474,426.32808 c 0,0 -17.92254,12.39491 -33.2342,8.53971 -15.31165,-3.8552 -19.47251,-2.41324 -21.25573,2.56266 -1.64779,4.57992 42.76729,28.80193 49.84753,32.62725 a 0.8126088,0.80690231 0 0 0 1.18128,-0.52299 c 0.48155,-2.0322 1.6478,-6.38798 2.8968,-6.72419 1.62523,-0.43334 9.02899,-14.19551 8.62269,-19.60474 -0.4063,-5.40923 -8.05837,-16.8777 -8.05837,-16.8777 z"
         fill="#f3b5b7"
         id="path807"
         style="stroke-width:0.749769" />
      <path
         d="m 500.46983,396.56982 -50.41184,-6.72419 c 0,0 -82.0133,38.85086 -91.7947,39.59799 l 2.25725,17.18403 h 15.04831 c 6.01932,0 64.70773,-12.70124 72.9843,-25.40248 a 20.149688,20.008189 0 0 1 14.2959,1.49426 c 7.52416,3.73566 79.75605,26.89674 79.75605,26.89674 z"
         fill="#575988"
         id="path809"
         style="stroke-width:0.749769" />
      <polygon
         points="714.5,494.5 698.5,486.5 687.5,500.5 698.5,506.5 "
         fill="#f7c4a7"
         id="polygon813"
         transform="matrix(0.75241556,0,0,0.74713177,-114.62977,56.251295)" />
      <path
         d="m 554.64375,407.77679 c 0,0 -27.08696,-23.02659 -28.96048,-27.20306 -1.87351,-4.17647 -46.28108,-32.56748 -49.29074,-33.31461 -3.00966,-0.74713 -12.79106,-5.97705 -22.57247,11.95411 -9.7814,17.93116 -45.89735,61.26481 -45.89735,61.26481 0,0 11.28624,15.68976 15.04832,14.94263 3.76207,-0.74713 45.89735,-35.86233 48.907,-53.04635 0,0 3.00967,-6.72419 9.78141,4.48279 6.77174,11.20697 50.41185,65.00046 58.68842,64.25333 0,0 32.35387,5.22992 39.1256,-7.47132 6.77175,-12.70124 -24.82971,-35.86233 -24.82971,-35.86233 z"
         fill="#575988"
         id="path815"
         style="stroke-width:0.749769" />
      <path
         d="m 570.06827,298.32199 c 0,0 -9.4052,4.10922 -10.15761,21.29326 -0.75241,17.18403 -17.30556,46.32216 -17.30556,46.32216 l 1.50483,34.36807 c 0,0 18.05797,17.93115 19.56281,29.13814 1.50483,11.20697 14.29589,18.67829 14.29589,18.67829 0,0 15.04831,-7.47132 17.30556,-17.18403 2.25724,-9.71271 3.76208,-33.62093 7.52415,-42.58651 3.76208,-8.96558 1.50484,-65.00046 1.50484,-65.00046 l -11.28624,-19.42543 -6.01932,-6.72419 -15.80073,17.93116 c 0,0 -8.65278,-11.58054 -1.12862,-16.81046 z"
         fill="#dddbe2"
         id="path817"
         style="stroke-width:0.749769" />
      <path
         d="m 547.87201,389.0985 c 0,0 -2.25724,-26.89675 4.51449,-32.8738 l 13.54348,-38.10372 c 0,0 4.89071,-18.30473 4.13829,-19.79899 -0.75242,-1.49426 -17.68177,14.56907 -17.68177,14.56907 l -11.28623,39.59798 3.00966,41.83938 z"
         opacity="0.1"
         id="path819"
         style="stroke-width:0.749769" />
      <path
         d="m 547.11959,389.0985 c 0,0 -2.25724,-26.89675 4.5145,-32.8738 l 13.54348,-38.10372 c 0,0 5.2669,-18.67829 4.51449,-20.17256 -0.75241,-1.49426 -18.05797,14.94264 -18.05797,14.94264 l -11.28623,39.59798 3.00965,41.83938 z"
         fill="#575988"
         id="path821"
         style="stroke-width:0.749769" />
      <path
         d="m 552.3865,377.14439 c 0,0 -37.62077,-11.95411 -39.87803,-14.94264 -2.25724,-2.98852 -26.33453,-22.41395 -34.6111,-8.96558 -8.27658,13.44837 30.84903,17.18404 30.84903,17.18404 l 39.87802,23.90821 z"
         fill="#f7c4a7"
         id="path823"
         style="stroke-width:0.749769" />
      <path
         d="m 412.56512,430.1235 -11.13575,-1.98737 c 0,0 -18.23855,23.19845 -27.74156,20.84498 -9.50301,-2.35346 -18.24608,7.80006 -8.20886,11.05755 9.06662,2.9437 48.22232,7.06039 55.67875,7.82247 a 1.0985267,1.0908124 0 0 0 1.2114,-1.06093 23.956911,23.788675 0 0 1 1.73055,-8.42017 c 2.00895,-4.89371 0,-15.40586 -0.55679,-19.42542 a 19.434893,19.298413 0 0 0 -2.18952,-6.72419 z"
         opacity="0.1"
         id="path825"
         style="stroke-width:0.749769" />
      <ellipse
         cx="569.31757"
         cy="272.91956"
         opacity="0.1"
         id="circle829"
         rx="24.077299"
         ry="23.908216"
         style="stroke-width:0.749769" />
      <ellipse
         cx="567.06024"
         cy="272.91956"
         fill="#f7c4a7"
         id="circle831"
         rx="24.077299"
         ry="23.908216"
         style="stroke-width:0.749769" />
      <path
         d="m 590.7597,296.45416 c 0,0 28.59179,9.71271 28.59179,29.88527 0,20.17256 -15.80073,52.29923 -16.55315,78.44884 -0.75241,26.14961 -42.13527,22.41395 -42.13527,22.41395 0,0 -6.01932,-88.16155 0,-94.88573 6.01932,-6.72419 33.10628,-32.8738 30.09663,-35.86233 z"
         fill="#575988"
         id="path833"
         style="stroke-width:0.749769" />
      <path
         d="m 585.49279,338.29354 c 0,0 -10.53382,46.32217 -35.36353,38.10372 0,0 -12.79107,18.67829 -3.76208,26.89674 0,0 21.82005,5.22992 36.11595,-8.96558 14.29589,-14.1955 24.8297,-19.42542 27.08696,-36.60946 2.25724,-17.18402 3.76208,-41.09225 -3.76208,-38.85084 -7.52416,2.24139 -20.31522,19.42542 -20.31522,19.42542 z"
         opacity="0.1"
         id="path835"
         style="stroke-width:0.749769" />
      <path
         d="m 586.24521,337.54641 c 0,0 -10.53383,46.32217 -35.36354,38.10372 0,0 -12.79106,18.67829 -3.76208,26.89674 0,0 21.82006,5.22992 36.11595,-8.96558 14.29589,-14.1955 24.82972,-19.42542 27.08696,-36.60946 2.25725,-17.18403 3.76208,-41.09225 -3.76208,-38.85085 -7.52415,2.2414 -20.31521,19.42543 -20.31521,19.42543 z"
         fill="#575988"
         id="path837"
         style="stroke-width:0.749769" />
      <path
         d="m 424.50595,456.71392 c 0,0.0672 -0.0452,0.14943 -0.0677,0.2092 a 22.030728,21.876018 0 0 0 -1.1813,3.95233 c 0.18059,-0.58276 0.39127,-1.18047 0.63204,-1.77817 a 10.925074,10.848354 0 0 0 0.61697,-2.38336 z"
         fill="#dddbe2"
         id="path839"
         style="stroke-width:0.749769" />
      <path
         d="m 365.85517,458.58923 c -3.09996,-1.00864 -4.40164,-2.66727 -4.45431,-4.41556 -1.27911,2.43566 -0.47402,5.17016 3.90504,6.58971 9.0666,2.9437 48.22984,7.0604 55.67875,7.82246 a 1.0985267,1.0908124 0 0 0 1.21139,-1.06839 v 0 a 1.1060508,1.0982837 0 0 0 -0.98566,-1.11323 c -8.17124,-0.86667 -46.409,-4.91613 -55.35521,-7.81499 z"
         fill="#dddbe2"
         id="path841"
         style="stroke-width:0.749769" />
      <path
         d="m 299.03314,436.1155 a 9.2697599,9.2046634 0 0 1 0.75241,-1.58392 7.3360516,7.2845347 0 0 0 -1.76817,2.89887 c -1.6478,4.57992 42.76729,28.80193 49.84752,32.62725 a 0.8126088,0.80690231 0 0 0 1.18129,-0.53046 v 0 a 0.8126088,0.80690231 0 0 0 -0.39877,-0.89657 c -7.82512,-4.25117 -51.2395,-27.98755 -49.61428,-32.51517 z"
         fill="#dddbe2"
         id="path843"
         style="stroke-width:0.749769" />
      <path
         d="m 497.41502,412.93947 c -0.39877,0.1046 -0.79004,0.63507 -1.15872,1.35978 l 0.12039,-0.0448 c 0.33106,-0.0896 0.89537,-0.74714 1.58008,-1.7184 a 1.4596861,1.4494357 0 0 1 -0.54175,0.40345 z"
         fill="#dddbe2"
         id="path845"
         style="stroke-width:0.749769" />
      <path
         d="m 563.71788,293.96621 c -2.12181,4.64716 -2.56574,9.88455 -4.12323,14.75586 -3.09243,9.66041 -10.84984,17.65472 -20.14217,20.74037 7.81759,3.09313 17.04221,-0.68736 23.08411,-6.96327 6.0419,-6.2759 9.58578,-14.62884 12.97916,-22.75763 8.77318,5.85751 7.70474,19.32083 10.65421,29.80309 a 33.286864,33.053109 0 0 0 17.71939,21.03175 31.729364,31.506547 0 0 0 27.13963,-0.5454 c -8.04332,-9.71272 -19.49509,-23.10878 -18.13321,-36.07899 1.10604,-10.50467 -6.48583,-18.52887 -5.96667,-29.0709 0.75243,-14.94264 -5.01108,-22.5335 -15.80072,-32.12667 -6.30524,-5.61096 3.61912,-13.52308 -4.51449,-11.20697 -3.19777,0.9115 -6.56859,-2.48795 -9.70616,-1.36725 -6.21496,2.24139 -13.00175,1.37472 -19.39728,2.86898 -33.24171,7.75523 9.30738,44.13307 6.20743,50.91703 z"
         opacity="0.1"
         id="path847"
         style="stroke-width:0.749769" />
      <path
         d="m 564.4703,293.21908 c -2.12181,4.64716 -2.56574,9.88455 -4.12324,14.75585 -3.09243,9.66041 -10.84983,17.65473 -20.14216,20.74038 7.81759,3.09313 17.04221,-0.68736 23.08411,-6.96327 6.04189,-6.27591 9.58577,-14.62884 12.97916,-22.75763 8.77317,5.85751 7.70474,19.32083 10.65421,29.80308 a 33.286864,33.053109 0 0 0 17.71939,21.03176 31.729364,31.506547 0 0 0 27.13962,-0.54541 c -8.04332,-9.71271 -18.74267,-20.86738 -17.3808,-33.83759 1.10606,-10.50467 -0.54173,-21.30072 0,-31.83529 0.75242,-14.94263 -6.62878,-29.37722 -17.42594,-38.97039 -6.30524,-5.61096 -16.15436,-6.3282 -19.29946,-5.22992 -6.21496,2.24139 -13.00174,1.37472 -19.39728,2.86898 -33.25676,7.77765 9.29234,44.15549 6.19239,50.93945 z"
         fill="#fc6681"
         id="path849"
         style="stroke-width:0.749769" />
      <path
         d="m 500.46983,396.56982 -50.41184,-6.72419 c 0,0 -82.0133,38.85086 -91.7947,39.59799 l 2.25725,17.18403 h 15.04831 c 6.01932,0 64.70773,-12.70124 72.9843,-25.40248 a 20.149688,20.008189 0 0 1 14.2959,1.49426 c 7.52416,3.73566 79.75605,26.89674 79.75605,26.89674 z"
         opacity="0.1"
         id="path811"
         style="stroke-width:0.749769" />
      <path
         d="m 412.37702,430.84822 -11.13576,-1.98736 c 0,0 -18.23855,23.19843 -27.72651,20.85244 -9.48796,-2.346 -18.24608,7.80006 -8.20885,11.05755 9.0666,2.9437 48.22231,7.0604 55.67875,7.82247 a 1.0985267,1.0908124 0 0 0 1.21139,-1.06092 23.956911,23.788675 0 0 1 1.66283,-8.41271 c 2.00896,-4.89371 0,-15.40586 -0.55678,-19.42543 a 19.434893,19.298413 0 0 0 -2.18953,-6.72418 z"
         fill="#f3b5b7"
         id="path827"
         style="stroke-width:0.749769" />
    </g>
  </g>
</svg>
