<?xml version="1.0" encoding="UTF-8" standalone="no"?>
<svg
   xmlns:dc="http://purl.org/dc/elements/1.1/"
   xmlns:cc="http://creativecommons.org/ns#"
   xmlns:rdf="http://www.w3.org/1999/02/22-rdf-syntax-ns#"
   xmlns:svg="http://www.w3.org/2000/svg"
   xmlns="http://www.w3.org/2000/svg"
   xmlns:xlink="http://www.w3.org/1999/xlink"
   xmlns:sodipodi="http://sodipodi.sourceforge.net/DTD/sodipodi-0.dtd"
   xmlns:inkscape="http://www.inkscape.org/namespaces/inkscape"
   width="238.85307mm"
   height="169.95795mm"
   viewBox="0 0 238.85307 169.95795"
   version="1.1"
   id="svg8"
   inkscape:version="1.0.2 (e86c8708, 2021-01-15)"
   sodipodi:docname="hero-bg.svg"
   inkscape:export-filename="/Users/andreapirrone/bitmap.png"
   inkscape:export-xdpi="96"
   inkscape:export-ydpi="96">
  <defs
     id="defs2">
    <linearGradient
       id="deacd444-d5db-4c24-9492-02e57292be3c"
       x1="675.04999"
       y1="606.02002"
       x2="675.04999"
       y2="240.27"
       gradientUnits="userSpaceOnUse">
      <stop
         offset="0"
         stop-color="gray"
         stop-opacity="0.25"
         id="stop713" />
      <stop
         offset="0.54"
         stop-color="gray"
         stop-opacity="0.12"
         id="stop715" />
      <stop
         offset="1"
         stop-color="gray"
         stop-opacity="0.1"
         id="stop717" />
    </linearGradient>
    <linearGradient
       id="a1de9c2c-a914-4f57-a703-6b671b828453"
       x1="473.94"
       y1="635.65002"
       x2="473.94"
       y2="301.64999"
       xlink:href="#deacd444-d5db-4c24-9492-02e57292be3c"
       gradientTransform="translate(-29.59117,-209)" />
    <linearGradient
       id="33ead0d0-8f65-4117-bca2-44ecb419ecb0"
       x1="363.44"
       y1="662.65002"
       x2="363.44"
       y2="401.64999"
       xlink:href="#deacd444-d5db-4c24-9492-02e57292be3c"
       gradientTransform="translate(-29.59117,-209)" />
    <linearGradient
       id="9a5964b5-9011-4675-8f60-8033350848c0"
       x1="849.67999"
       y1="703.65997"
       x2="849.67999"
       y2="385.5"
       xlink:href="#deacd444-d5db-4c24-9492-02e57292be3c"
       gradientTransform="matrix(0.81431167,0,0,0.80782015,-224.85933,-72.895295)" />
  </defs>
  <sodipodi:namedview
     id="base"
     pagecolor="#ffffff"
     bordercolor="#666666"
     borderopacity="1.0"
     inkscape:pageopacity="0.0"
     inkscape:pageshadow="2"
     inkscape:zoom="0.76954984"
     inkscape:cx="477.19557"
     inkscape:cy="337.88941"
     inkscape:document-units="mm"
     inkscape:current-layer="g925"
     inkscape:document-rotation="0"
     showgrid="false"
     fit-margin-top="0"
     fit-margin-left="0"
     fit-margin-right="0"
     fit-margin-bottom="0"
     inkscape:window-width="1440"
     inkscape:window-height="900"
     inkscape:window-x="0"
     inkscape:window-y="0"
     inkscape:window-maximized="0" />
  <metadata
     id="metadata5">
    <rdf:RDF>
      <cc:Work
         rdf:about="">
        <dc:format>image/svg+xml</dc:format>
        <dc:type
           rdf:resource="http://purl.org/dc/dcmitype/StillImage" />
        <dc:title></dc:title>
      </cc:Work>
    </rdf:RDF>
  </metadata>
  <g
     inkscape:label="Layer 1"
     inkscape:groupmode="layer"
     id="layer1"
     transform="translate(-3.0754908,-16.325066)">
    <g
       id="g925"
       transform="matrix(0.28052164,0,0,0.27770901,3.0758351,16.325098)">
      <path
         d="m 197.94799,61.95868 c -7.01465,-0.185799 -14.20337,0 -20.78287,1.874143 -17.90217,5.105423 -26.38764,21.811144 -23.62878,36.246887 2.75887,14.43574 14.10765,27.0135 25.88287,38.50878 11.77523,11.49528 24.53389,22.86131 30.99156,36.60234 3.22012,6.85839 4.72575,14.54076 1.4534,21.39107 -5.04777,10.55821 -20.26939,16.4553 -34.88181,17.68319 -14.61242,1.22788 -29.28576,-1.16327 -43.9504,-1.96301 -6.15305,-0.3312 -12.48017,-0.37159 -18.2764,1.17134 -6.36192,1.68027 -11.66208,5.1135 -16.535789,8.69215 -19.016155,14.03991 -34.237784,33.19333 -31.774822,53.31613 2.784975,22.80476 27.623472,40.82723 54.829201,50.49683 9.00765,3.23128 18.53749,5.80015 26.46596,10.37241 20.88732,12.06076 25.57826,34.67972 23.49823,54.64096 -2.08003,19.96124 -9.1643,39.94671 -5.22183,59.73022 4.63873,23.0148 25.16922,43.80809 52.86232,53.51809 24.67313,8.65175 55.55155,8.0782 77.45712,-4.12796 10.67864,-5.96172 18.75507,-14.24187 25.77843,-22.80477 a 198.2032,183.97296 0 0 0 25.63047,-41.19883 c 3.05477,-6.85839 5.92677,-14.23379 13.05457,-18.99992 4.35152,-2.93239 9.9911,-4.57227 15.56975,-5.84862 16.81429,-3.84523 34.52499,-4.89539 51.49594,-8.32055 16.97094,-3.42516 34.04632,-9.83117 43.27154,-21.22144 13.05457,-16.1564 6.96244,-36.85275 7.02337,-55.85268 0.10443,-43.34763 34.03761,-82.14723 46.5613,-124.4043 4.09043,-13.80565 5.61346,-29.08153 -3.52474,-41.40079 C 514.99131,151.69942 504.52154,145.665 493.52089,141.00388 469.31772,130.75264 441.80738,126.18845 414.74961,121.74544 377.14374,115.5737 331.47885,114.77396 302.33235,94.804648 274.36075,75.635075 236.09346,61.95868 197.94799,61.95868 Z"
         fill="#f39f0a"
         opacity="0.2"
         id="path727"
         style="stroke-width:0.838481" />
      <ellipse
         cx="456.01889"
         cy="455.6983"
         rx="303.51804"
         ry="100.58976"
         fill="#f5f5f5"
         id="ellipse729"
         style="stroke-width:0.726145" />
      <path
         d="m 537.73115,176.92188 h -1.78119 V 128.23031 A 28.241091,28.181349 0 0 0 507.7089,100.04893 H 404.33049 a 28.241087,28.181345 0 0 0 -28.24115,28.18129 v 267.12581 a 28.241101,28.181358 0 0 0 28.24107,28.18138 h 103.37835 a 28.241101,28.181358 0 0 0 28.24118,-28.18127 V 211.58136 h 1.78121 z"
         fill="#3f3d56"
         id="path1594"
         style="fill:#535461;fill-opacity:1;stroke-width:0.460672" />
      <path
         d="m 621.35704,194.38008 c 0,0 -29.17679,28.94419 -12.70326,71.89599 16.47352,42.9518 -28.24033,114.37925 -28.24033,114.37925 0,0 0.48044,-0.0727 1.36804,-0.22619 59.9252,-10.50166 89.70436,-78.4878 56.38294,-129.0008 -12.38568,-18.77374 -22.55643,-40.77876 -16.80739,-57.04825 z"
         fill="#f39f0a"
         id="path731"
         style="stroke-width:0.811059" />
      <path
         d="m 621.35704,194.38008 c 0,0 -16.47352,35.47946 0,64.42365 16.47353,28.9442 2.82566,110.17859 -40.94359,121.85159"
         fill="none"
         stroke="#535461"
         stroke-miterlimit="10"
         stroke-width="1.62212"
         id="path733" />
      <path
         d="m 694.83145,302.22179 c 0,0 -33.29694,-5.25891 -36.32618,24.33962 -3.02924,29.59853 -64.02118,33.70226 -64.02118,33.70226 l 1.14003,0.75127 c 50.35704,32.78942 98.53147,20.89023 91.20279,-22.61897 -2.66278,-16.22102 -2.44291,-32.48244 8.00454,-36.17418 z"
         fill="#f39f0a"
         id="path735"
         style="stroke-width:0.811059" />
      <path
         d="m 694.83145,302.22179 c 0,0 -33.29694,-5.25891 -36.32618,24.33962 -3.02924,29.59853 -64.02118,33.70226 -64.02118,33.70226 l 1.14003,0.75127 c 50.35704,32.78942 98.53147,20.89023 91.20279,-22.61897 -2.66278,-16.22102 -2.44291,-32.48244 8.00454,-36.17418 z"
         fill="#f5f5f5"
         opacity="0.2"
         id="path737"
         style="stroke-width:0.811059" />
      <path
         d="m 694.83145,302.22179 c 0,0 -25.84599,5.65474 -23.72063,28.93612 2.12535,23.28137 -38.37851,51.25618 -76.62673,29.08152"
         fill="none"
         stroke="#535461"
         stroke-miterlimit="10"
         stroke-width="1.62212"
         id="path739" />
      <ellipse
         cx="592.24536"
         cy="110.27441"
         fill="#ffffff"
         id="circle747"
         rx="3.6236868"
         ry="3.5947995"
         style="stroke-width:0.811059" />
      <ellipse
         cx="327.45563"
         cy="228.83815"
         fill="#ffffff"
         id="circle767"
         rx="0.81431168"
         ry="0.80782014"
         style="stroke-width:0.811059" />
      <path
         d="m 274.76046,442.58737 c 0,0 -10.79777,-36.3519 2.02763,-63.12306 a 57.889416,57.427934 0 0 0 4.70673,-36.03686 97.367246,96.591055 0 0 0 -5.13831,-16.90768"
         fill="none"
         stroke="#535461"
         stroke-miterlimit="10"
         stroke-width="1.62212"
         id="path773" />
      <path
         d="m 284.30419,309.60402 c 0,4.45917 -8.14312,17.37621 -8.14312,17.37621 0,0 -8.14311,-12.92512 -8.14311,-17.37621 a 8.1431167,8.0782015 0 0 1 16.28623,0 z"
         fill="#f39f0a"
         id="path775"
         style="stroke-width:0.811059" />
      <path
         d="m 297.78105,334.291 c -2.44294,3.74021 -16.35138,10.20277 -16.35138,10.20277 0,0 0.25244,-15.23549 2.69537,-18.97569 a 8.1431167,8.0782015 0 1 1 13.65601,8.77292 z"
         fill="#f39f0a"
         id="path777"
         style="stroke-width:0.811059" />
      <path
         d="m 297.16217,376.46729 c -4.01455,2.0034 -19.30733,0.62202 -19.30733,0.62202 0,0 7.97211,-13.02206 11.97853,-15.02545 a 8.1431167,8.0782015 0 0 1 7.3288,14.41151 z"
         fill="#f39f0a"
         id="path779"
         style="stroke-width:0.811059" />
      <path
         d="m 289.47507,408.28733 c -3.61554,2.64965 -18.9246,3.84522 -18.9246,3.84522 0,0 5.63503,-14.16916 9.25058,-16.81881 a 8.1431167,8.0782015 0 0 1 9.67402,12.97359 z"
         fill="#f39f0a"
         id="path781"
         style="stroke-width:0.811059" />
      <path
         d="m 264.32098,345.35814 c 3.25725,3.10203 18.23244,6.32523 18.23244,6.32523 0,0 -3.67254,-14.79119 -6.89722,-17.89321 a 8.1431167,8.0782015 0 1 0 -11.33522,11.57606 z"
         fill="#f39f0a"
         id="path783"
         style="stroke-width:0.811059" />
      <path
         d="m 255.80328,382.67943 c 4.01456,2.00339 19.30733,0.62202 19.30733,0.62202 0,0 -7.97211,-13.02206 -11.97852,-15.02545 a 8.1431167,8.0782015 0 1 0 -7.32881,14.41151 z"
         fill="#f39f0a"
         id="path785"
         style="stroke-width:0.811059" />
      <path
         d="m 252.54604,420.0815 c 3.61554,2.64965 18.9246,3.84523 18.9246,3.84523 0,0 -5.63504,-14.16917 -9.25058,-16.81882 a 8.1431167,8.0782015 0 0 0 -9.67402,12.97359 z"
         fill="#f39f0a"
         id="path787"
         style="stroke-width:0.811059" />
      <path
         d="m 652.15431,360.9849 c -9.01443,-10.84902 -19.93435,-23.31369 -18.40345,-37.74943 1.23776,-11.68916 -1.72634,-22.49779 -1.14003,-34.22734 0.81431,-16.66533 -2.55694,-29.71163 -14.65761,-40.39101 -7.06823,-6.24445 -18.88389,-11.14792 -22.40172,-9.8958 -6.9705,2.47193 -14.57617,1.52678 -21.75026,3.23128 -5.44775,1.2602 -9.07143,3.23129 -11.31893,5.65475 -4.51943,4.0391 -4.59272,9.69384 -2.53251,15.7121 a 26.750138,26.536892 0 0 0 13.21628,37.22435 c -5.02431,2.08418 -9.36459,6.88263 -11.05836,16.62494 a 114.55737,113.64414 0 0 1 -5.31745,19.63811 32.173454,31.916974 0 0 1 -3.25725,1.30059 c 0.2443,0.0969 0.49673,0.16156 0.74103,0.25042 -0.52931,0.20196 -1.05047,0.40391 -1.62863,0.58163 a 17.27155,17.133865 0 0 0 2.97224,0.85629 c -6.51449,16.32605 -14.65761,26.43995 -14.65761,26.43995 0,0 -15.18691,3.32822 -21.09067,-2.49616 0,0 0.96089,1.11479 2.26378,2.78698 -5.77347,-2.37499 -15.25205,-6.25253 -23.35445,-9.44342 -5.87933,-2.31844 -7.38581,0 -7.32881,3.23128 a 10.846631,10.760164 0 0 0 -4.07156,1.35714 39.632549,39.316607 0 0 0 -5.44774,-2.90815 c -3.37125,-0.80782 -14.34003,-6.65644 -25.30881,13.3048 -6.3842,11.60837 -22.75187,32.79749 -35.33298,48.4692 -24.47007,11.16408 -56.32594,25.30093 -68.16603,28.85534 h -7.58939 c -0.99346,-1.61564 -1.68562,-2.63349 -1.68562,-2.63349 l -0.58631,0.38775 -0.25243,-0.38775 c 0,0 -14.90191,10.23508 -30.03182,10.31586 a 28.500908,28.273705 0 0 1 -6.3842,-0.80782 c -6.95422,-1.73681 -11.85638,-2.51232 -15.35792,-2.42346 -4.14485,-0.0727 -6.51449,0.90476 -7.94768,2.74659 v 0 a 7.2799463,7.2219121 0 0 0 -0.5293,0.75935 v 0 a 8.9981439,8.9264126 0 0 0 -0.43973,0.80782 v 0 c -0.13029,0.29081 -0.26058,0.59779 -0.37459,0.91284 a 1.8892031,1.8741427 0 0 0 0.47231,1.57524 8.4851276,8.4174859 0 0 0 0.65959,0.80783 l 0.42344,0.45237 c 1.90549,1.95493 5.37446,4.54803 9.69031,7.44003 1.2459,0.80782 2.56508,1.69642 3.94127,2.57694 l 2.61394,1.61564 2.33707,1.446 0.93646,0.57355 1.04232,0.6301 1.86477,1.12287 1.10747,0.66242 2.09278,1.23596 1.69377,0.99362 c 4.42985,2.5931 8.84342,5.10542 12.82541,7.33501 l 2.78494,1.64795 0.26872,0.14541 1.79149,0.99362 3.09438,1.7045 2.12536,1.16326 0.99346,0.54124 1.06675,0.58163 0.21172,0.11309 1.85663,1.0017 a 2.6872285,2.6658065 0 0 0 2.16607,-0.58163 c 0.53744,-2.2619 1.84848,-7.10882 3.25724,-7.48041 1.40876,-0.3716 7.50796,-10.94597 9.22615,-18.02247 H 368.953 a 72.579599,72.00101 0 0 0 9.64145,-1.47023 c -4.25071,3.00509 -8.4607,4.89539 -11.73423,4.08757 -6.92165,-1.70451 -13.47686,2.48 -14.13646,6.60796 0,0.0889 -0.057,0.16965 -0.0814,0.25851 -0.0244,0.0889 -0.0407,0.16964 -0.057,0.25042 -0.0163,0.0808 -0.0489,0.20196 -0.0651,0.30697 -0.0163,0.10502 0,0.16964 0,0.2585 0,0.0889 0,0.20196 0,0.30698 0,0.10501 0,0.16964 0,0.25042 0,0.0808 0,0.21003 0,0.31505 0,0.10502 0,0.16156 0,0.24235 0,0.0808 0.0489,0.21811 0.0814,0.3312 0.0326,0.1131 0,0.14541 0.057,0.21004 a 4.0715583,4.0391007 0 0 0 0.17915,0.42814 l 0.0407,0.10502 a 4.3809968,4.3460724 0 0 0 0.30944,0.50892 l 0.13029,0.16965 c 0.0814,0.11309 0.17101,0.22619 0.26873,0.3312 l 0.18729,0.1858 c 0.0977,0.0969 0.20357,0.19388 0.30944,0.29082 l 0.228,0.1858 0.36644,0.26658 0.26873,0.17772 0.43972,0.2585 0.29316,0.15348 0.55373,0.25851 0.27686,0.12117 c 0.29316,0.12117 0.60259,0.23427 0.93646,0.33928 0.52931,0.16965 1.15633,0.34737 1.86478,0.52509 l 0.70845,0.16964 1.03417,0.23427 0.54559,0.12117 q 1.05861,0.22619 2.2475,0.45238 l 1.09932,0.20195 0.89575,0.16157 2.0602,0.35544 c 1.28662,0.21811 2.63023,0.43622 4.07156,0.64626 l 3.5504,0.53316 4.62529,0.65433 1.02603,0.13733 1.62863,0.22619 2.38593,0.31505 1.62862,0.21003 v 0 l 4.22628,0.53316 1.31919,0.16157 2.6628,0.32313 c 3.50154,0.42006 6.88907,0.80782 10.00789,1.15518 l 3.6074,0.40391 1.82406,0.20195 0.81431,0.0808 2.18235,0.23426 1.21333,0.12926 1.49833,0.15348 2.10907,0.21811 h 0.228 l 1.35176,0.13733 v 0 a 1.2296106,1.2198084 0 0 0 1.3599,-1.18749 v 0 0 c 0,-0.0404 0,-0.0889 0,-0.13733 a 1.188895,1.1794174 0 0 0 0.19544,-0.6301 27.686597,27.465885 0 0 1 0.75731,-5.91325 c 0.0896,-0.3312 0.19543,-0.67049 0.30944,-1.00977 l 0.13029,-0.38775 c 0.14657,-0.41199 0.29315,-0.80782 0.46415,-1.25213 a 9.0551457,8.98296 0 0 0 0.31758,-0.92091 c 0,-0.0969 0.057,-0.19388 0.0896,-0.29889 0.0326,-0.10502 0.0814,-0.33121 0.114,-0.50085 1.69377,-5.7436 -0.35015,-16.4553 -0.93646,-20.66404 a 22.613435,22.433165 0 0 0 -0.92831,-3.95832 1.6286233,1.6156403 0 0 0 0.31758,0 9.6007345,9.5241995 0 0 0 2.44294,-1.31675 c 12.44268,-4.40262 22.93101,-9.43534 26.24526,-14.47613 a 22.727439,22.54626 0 0 1 16.02565,1.66411 c 6.44121,3.17473 55.16962,18.95146 77.85634,26.23799 4.07156,3.48171 7.26366,5.51742 9.03072,5.36393 0,0 28.88363,4.63689 40.49572,-4.4107 1.03417,0.71088 1.68562,1.09056 1.68562,1.09056 0,0 16.87254,-8.31247 19.40505,-19.12918 0.81431,-3.50594 1.55534,-8.67599 2.31265,-14.39536 a 21.098815,20.93062 0 0 0 6.12362,-14.7104 c 0.5293,-18.1598 7.62196,-38.90462 12.88241,-57.35523 6.3842,0.50085 8.85157,-0.69473 14.70647,-3.56249 l -0.26058,-0.33121 c 0.4153,-0.24234 0.78174,-0.40391 1.14818,-0.58163 z m -96.73209,27.19931 -3.25724,-1.0744 a 26.872285,26.658065 0 0 0 2.80937,-4.63689 z m -18.151,7.64198 19.54348,11.63261 0.171,2.36691 a 17.100545,16.964223 0 0 0 0.16287,5.41239 c -8.61542,-7.59351 -18.6966,-16.81073 -19.8855,-19.41999 z m -7.98026,-16.96423 c -2.13349,-0.87244 -3.90055,-1.66411 -5.11387,-2.31844 1.62862,0.11309 3.17581,0.21003 4.52757,0.28274 a 10.130037,10.049283 0 0 1 0.5863,2.0357 z m -52.34395,18.95954 c 0,0 3.37125,-7.48041 10.96878,4.99233 1.18075,1.93877 3.35496,5.02464 6.22948,8.84563 l -22.1167,-2.93239 c 2.60579,-4.00678 4.35656,-7.73083 4.91844,-10.89749 z"
         fill="url(#9a5964b5-9011-4675-8f60-8033350848c0)"
         id="path789"
         style="fill:url(#9a5964b5-9011-4675-8f60-8033350848c0);stroke-width:0.811059" />
      <path
         d="m 507.11958,107.38075 h -13.31857 a 9.8894088,9.9986889 0 0 1 -9.15624,13.77491 h -58.45295 a 9.8893909,9.9986711 0 0 1 -9.15624,-13.77493 H 404.596 a 20.815511,21.045526 0 0 0 -20.81553,21.04549 v 266.73385 a 20.815506,21.045521 0 0 0 20.81549,21.04554 H 507.11958 A 20.815511,21.045526 0 0 0 527.9351,395.1601 v 0 -266.73386 a 20.815492,21.045507 0 0 0 -20.81552,-21.04549 z"
         fill="#ffffff"
         id="path1596"
         style="stroke-width:0.457663" />
      <path
         d="m 525.52884,367.77059 c 0,0 -15.47192,-6.46256 -27.68659,-11.30948 -12.21468,-4.84692 -4.88587,11.30948 -4.88587,11.30948 0,0 20.35779,5.65474 20.35779,6.46256 0,0.80782 17.10054,1.61564 17.10054,1.61564 z"
         fill="#f7c4a7"
         id="path791"
         style="stroke-width:0.811059" />
      <path
         d="m 525.52884,367.77059 c 0,0 -15.47192,-6.46256 -27.68659,-11.30948 -12.21468,-4.84692 -4.88587,11.30948 -4.88587,11.30948 0,0 20.35779,5.65474 20.35779,6.46256 0,0.80782 17.10054,1.61564 17.10054,1.61564 z"
         opacity="0.05"
         id="path793"
         style="stroke-width:0.811059" />
      <path
         d="m 591.48809,303.9528 c 0,0 -27.6866,-14.54076 -32.57247,13.73294 -4.88587,28.27371 -20.35779,47.66139 -20.35779,47.66139 0,0 -14.65761,3.23128 -20.35779,-2.42346 0,0 13.8433,16.1564 7.3288,17.77204 0,0 14.65761,10.50167 21.17211,7.27039 6.51449,-3.23128 11.40036,-25.04243 13.8433,-30.69717 2.44293,-5.65474 11.40036,-54.93177 30.94384,-53.31613 z"
         fill="#575988"
         id="path795"
         style="stroke-width:0.811059" />
      <path
         d="m 591.48809,303.9528 c 0,0 -27.6866,-14.54076 -32.57247,13.73294 -4.88587,28.27371 -20.35779,47.66139 -20.35779,47.66139 0,0 -14.65761,3.23128 -20.35779,-2.42346 0,0 13.8433,16.1564 7.3288,17.77204 0,0 14.65761,10.50167 21.17211,7.27039 6.51449,-3.23128 11.40036,-25.04243 13.8433,-30.69717 2.44293,-5.65474 11.40036,-54.93177 30.94384,-53.31613 z"
         opacity="0.1"
         id="path797"
         style="stroke-width:0.811059" />
      <path
         d="m 576.01617,294.25896 c 0,0 17.10054,19.38768 17.91485,35.54409 0.81432,16.1564 19.54348,-16.96423 21.17211,-17.77205 1.62862,-0.80782 -16.28624,-28.2737 -17.91486,-37.15972 -1.62862,-8.88603 -21.1721,19.38768 -21.1721,19.38768 z"
         fill="#f7c4a7"
         id="path799"
         style="stroke-width:0.811059" />
      <polygon
         points="909,358 926,342 924,326 916,320.75 902.75,332.75 "
         fill="#f7c4a7"
         id="polygon801"
         transform="matrix(0.81431167,0,0,0.80782015,-158.08567,43.43079)" />
      <polygon
         points="616.5,498.5 625.5,520.5 647.5,514.5 639.5,498.5 "
         fill="#f7c4a7"
         id="polygon803"
         transform="matrix(0.81431167,0,0,0.80782015,-1.7377211,-9.0775213)" />
      <path
         d="m 348.26948,443.56836 c 0,0 -19.3969,13.40173 -35.96815,9.23338 -16.57124,-4.16835 -21.07438,-2.60926 -23.0043,2.77082 -1.78334,4.95194 46.28547,31.14147 53.94815,35.27751 a 0.8794566,0.87244576 0 0 0 1.27847,-0.56547 c 0.52116,-2.19727 1.78334,-6.90687 3.1351,-7.27039 1.75891,-0.46853 9.77174,-15.34858 9.33201,-21.1972 -0.43973,-5.84861 -8.72128,-18.24865 -8.72128,-18.24865 z"
         opacity="0.1"
         id="path805"
         style="stroke-width:0.811059" />
      <path
         d="m 347.45517,443.56836 c 0,0 -19.39691,13.40173 -35.96815,9.23338 -16.57124,-4.16835 -21.07438,-2.60926 -23.0043,2.77082 -1.78334,4.95194 46.28547,31.14147 53.94815,35.27751 a 0.8794566,0.87244576 0 0 0 1.27846,-0.56547 c 0.52116,-2.19727 1.78335,-6.90687 3.1351,-7.27039 1.75892,-0.46853 9.77174,-15.34858 9.33202,-21.1972 -0.43973,-5.84861 -8.72128,-18.24865 -8.72128,-18.24865 z"
         fill="#f3b5b7"
         id="path807"
         style="stroke-width:0.811059" />
      <path
         d="m 507.61399,411.39288 -54.55888,-7.27038 c 0,0 -88.75998,42.00665 -99.34603,42.81447 l 2.44294,18.57986 h 16.28623 c 6.51449,0 70.0308,-13.73294 78.98823,-27.46588 a 21.807266,21.633424 0 0 1 15.47192,1.61564 c 8.14312,4.0391 86.31704,29.08152 86.31704,29.08152 z"
         fill="#575988"
         id="path809"
         style="stroke-width:0.811059" />
      <polygon
         points="698.5,486.5 687.5,500.5 698.5,506.5 714.5,494.5 "
         fill="#f7c4a7"
         id="polygon813"
         transform="matrix(0.81431167,0,0,0.80782015,-158.08567,43.43079)" />
      <path
         d="m 566.24443,423.51018 c 0,0 -29.31522,-24.89701 -31.34286,-29.41273 -2.02764,-4.51571 -50.08831,-35.21288 -53.34556,-36.0207 -3.25724,-0.80782 -13.84329,-6.46256 -24.42935,12.92512 -10.58605,19.38769 -49.67301,66.24126 -49.67301,66.24126 0,0 12.21468,16.96422 16.28624,16.1564 4.07155,-0.80782 49.67301,-38.77537 52.93025,-57.35523 0,0 3.25725,-7.27038 10.58606,4.84692 7.3288,12.1173 54.55888,70.28035 63.51631,69.47253 0,0 35.0154,5.65474 42.3442,-8.0782 7.32881,-13.73294 -26.87228,-38.77537 -26.87228,-38.77537 z"
         fill="#575988"
         id="path815"
         style="stroke-width:0.811059" />
      <path
         d="m 582.93782,305.16453 c 0,0 -10.1789,4.44301 -10.99321,23.02288 -0.81431,18.57986 -18.72917,50.08484 -18.72917,50.08484 l 1.62862,37.15973 c 0,0 19.54348,19.38768 21.17211,31.50499 1.62862,12.1173 15.47192,20.1955 15.47192,20.1955 0,0 16.28623,-8.0782 18.72917,-18.57986 2.44293,-10.50166 4.07156,-36.35191 8.14311,-46.04575 4.07156,-9.69384 1.62863,-70.28035 1.62863,-70.28035 l -12.21468,-21.00333 -6.51449,-7.27038 -17.10055,19.38768 c 0,0 -9.36458,-12.52121 -1.22146,-18.17595 z"
         fill="#dddbe2"
         id="path817"
         style="stroke-width:0.811059" />
      <path
         d="m 558.91562,403.31468 c 0,0 -2.44293,-29.08153 4.88587,-35.54409 l 14.65761,-41.19883 c 0,0 5.29303,-19.79159 4.47872,-21.40723 -0.81432,-1.61564 -19.13633,15.75249 -19.13633,15.75249 l -12.21467,42.81447 3.25724,45.23793 z"
         opacity="0.1"
         id="path819"
         style="stroke-width:0.811059" />
      <path
         d="m 558.10131,403.31468 c 0,0 -2.44293,-29.08153 4.88587,-35.54409 l 14.65761,-41.19883 c 0,0 5.70018,-20.1955 4.88587,-21.81114 -0.81431,-1.61564 -19.54348,16.1564 -19.54348,16.1564 l -12.21467,42.81447 3.25724,45.23793 z"
         fill="#575988"
         id="path821"
         style="stroke-width:0.811059" />
      <path
         d="m 563.80149,390.38956 c 0,0 -40.71558,-12.92513 -43.15852,-16.15641 -2.44293,-3.23128 -28.5009,-24.2346 -37.45833,-9.69384 -8.95743,14.54076 33.38678,18.57987 33.38678,18.57987 l 43.15851,25.85024 z"
         fill="#f7c4a7"
         id="path823"
         style="stroke-width:0.811059" />
      <path
         d="m 412.47796,447.67208 -12.05182,-2.1488 c 0,0 -19.73891,25.08282 -30.02367,22.53818 -10.28476,-2.54463 -19.74706,8.43365 -8.88414,11.95574 9.81246,3.18281 52.18924,7.6339 60.25906,8.45788 a 1.188895,1.1794174 0 0 0 1.31105,-1.14711 25.927683,25.720993 0 0 1 1.87291,-9.10413 c 2.17422,-5.29122 0,-16.65725 -0.60259,-21.00332 a 21.03367,20.865994 0 0 0 -2.36964,-7.27038 z"
         opacity="0.1"
         id="path825"
         style="stroke-width:0.811059" />
      <ellipse
         cx="582.12561"
         cy="277.69879"
         opacity="0.1"
         id="circle829"
         rx="26.057974"
         ry="25.850245"
         style="stroke-width:0.811059" />
      <ellipse
         cx="579.68262"
         cy="277.69879"
         fill="#f7c4a7"
         id="circle831"
         rx="26.057974"
         ry="25.850245"
         style="stroke-width:0.811059" />
      <path
         d="m 605.33139,303.14498 c 0,0 30.94384,10.50166 30.94384,32.31281 0,21.81114 -17.10054,56.54741 -17.91486,84.82111 -0.81431,28.27371 -45.60145,24.23461 -45.60145,24.23461 0,0 -6.51449,-95.32278 0,-102.59316 6.51449,-7.27038 35.82971,-35.54409 32.57247,-38.77537 z"
         fill="#575988"
         id="path833"
         style="stroke-width:0.811059" />
      <path
         d="m 599.63121,348.38291 c 0,0 -11.40037,50.08485 -38.27265,41.19883 0,0 -13.8433,20.1955 -4.07156,29.08152 0,0 23.61504,5.65474 39.08696,-9.69384 15.47192,-15.34858 26.87228,-21.00332 29.31522,-39.58319 2.44293,-18.57986 4.07156,-44.43011 -4.07156,-42.00664 -8.14312,2.42346 -21.98641,21.00332 -21.98641,21.00332 z"
         opacity="0.1"
         id="path835"
         style="stroke-width:0.811059" />
      <path
         d="m 600.44552,347.57509 c 0,0 -11.40037,50.08485 -38.27265,41.19883 0,0 -13.8433,20.1955 -4.07156,29.08152 0,0 23.61504,5.65474 39.08696,-9.69384 15.47192,-15.34858 26.87229,-21.00332 29.31522,-39.58319 2.44294,-18.57986 4.07156,-44.43011 -4.07156,-42.00665 -8.14311,2.42347 -21.98641,21.00333 -21.98641,21.00333 z"
         fill="#575988"
         id="path837"
         style="stroke-width:0.811059" />
      <path
         d="m 425.40108,476.4224 c 0,0.0727 -0.0489,0.16157 -0.0733,0.22619 a 23.843046,23.652974 0 0 0 -1.27847,4.27337 c 0.19544,-0.6301 0.42345,-1.27636 0.68403,-1.92261 a 11.823805,11.729549 0 0 0 0.66773,-2.57695 z"
         fill="#dddbe2"
         id="path839"
         style="stroke-width:0.811059" />
      <path
         d="m 361.92549,478.45003 c -3.35497,-1.09056 -4.76373,-2.88392 -4.82073,-4.77422 -1.38433,2.6335 -0.51301,5.59012 4.22628,7.12498 9.81245,3.18281 52.19738,7.6339 60.25906,8.45787 a 1.188895,1.1794174 0 0 0 1.31104,-1.15518 v 0 a 1.1970381,1.1874956 0 0 0 -1.06674,-1.20365 c -8.84343,-0.93707 -50.22675,-5.31546 -59.90891,-8.4498 z"
         fill="#dddbe2"
         id="path841"
         style="stroke-width:0.811059" />
      <path
         d="m 289.60647,454.1508 a 10.03232,9.9523442 0 0 1 0.81431,-1.71258 7.9395387,7.8762464 0 0 0 -1.91363,3.13434 c -1.78335,4.95194 46.28547,31.14147 53.94814,35.27751 a 0.8794566,0.87244576 0 0 0 1.27847,-0.57355 v 0 a 0.8794566,0.87244576 0 0 0 -0.43158,-0.96939 c -8.46884,-4.59649 -55.45463,-30.26094 -53.69571,-35.15633 z"
         fill="#dddbe2"
         id="path843"
         style="stroke-width:0.811059" />
      <path
         d="m 504.30788,429.09222 c -0.43158,0.11309 -0.85503,0.68665 -1.25404,1.47023 l 0.13029,-0.0485 c 0.3583,-0.0969 0.96903,-0.80782 1.71006,-1.85798 a 1.5797646,1.5671711 0 0 1 -0.58631,0.43622 z"
         fill="#dddbe2"
         id="path845"
         style="stroke-width:0.811059" />
      <path
         d="m 576.06503,300.45494 c -2.29636,5.02464 -2.77681,10.68746 -4.46243,15.95445 -3.34682,10.44511 -11.74238,19.08879 -21.79913,22.42508 8.4607,3.34438 18.44416,-0.74319 24.98309,-7.52888 6.53892,-6.78569 10.37433,-15.81712 14.04687,-24.6062 9.49488,6.33331 8.33855,20.89023 11.53066,32.22395 a 36.025148,35.737963 0 0 0 19.17704,22.74013 34.339523,34.065776 0 0 0 29.37222,-0.58971 c -8.70499,-10.50166 -21.09882,-24.98587 -19.62491,-39.00963 1.19703,-11.35795 -7.01937,-20.03394 -6.4575,-31.43228 0.81432,-16.15641 -5.42331,-24.36386 -17.10054,-34.73627 -6.82393,-6.06673 3.91684,-14.62154 -4.88587,-12.1173 -3.46082,0.98554 -7.10894,-2.69004 -10.50462,-1.47831 -6.72622,2.42346 -14.07131,1.48639 -20.99296,3.10203 -35.97628,8.38517 10.07304,47.71793 6.71808,55.05294 z"
         opacity="0.1"
         id="path847"
         style="stroke-width:0.811059" />
      <path
         d="m 576.87934,299.64712 c -2.29636,5.02464 -2.77681,10.68746 -4.46243,15.95445 -3.34682,10.44511 -11.74237,19.08879 -21.79912,22.42508 8.46069,3.34438 18.44416,-0.74319 24.98308,-7.52888 6.53892,-6.78569 10.37433,-15.81712 14.04687,-24.6062 9.49488,6.33331 8.33856,20.89023 11.53066,32.22394 a 36.025148,35.737963 0 0 0 19.17704,22.74014 34.339523,34.065776 0 0 0 29.37222,-0.58971 c -8.70499,-10.50166 -20.2845,-22.56241 -18.8106,-36.58617 1.19704,-11.35795 -0.5863,-23.03095 0,-34.42122 0.81431,-16.1564 -7.17409,-31.76349 -18.85946,-42.1359 -6.82393,-6.06673 -17.48327,-6.84223 -20.88709,-5.65474 -6.72622,2.42346 -14.07131,1.48639 -20.99296,3.10203 -35.99257,8.40941 10.05675,47.74217 6.70179,55.07718 z"
         fill="#fc6681"
         id="path849"
         style="stroke-width:0.811059" />
      <path
         d="m 507.61399,411.39288 -54.55888,-7.27038 c 0,0 -88.75998,42.00665 -99.34603,42.81447 l 2.44294,18.57986 h 16.28623 c 6.51449,0 70.0308,-13.73294 78.98823,-27.46588 a 21.807266,21.633424 0 0 1 15.47192,1.61564 c 8.14312,4.0391 86.31704,29.08152 86.31704,29.08152 z"
         opacity="0.1"
         id="path811"
         style="stroke-width:0.811059" />
      <path
         d="m 412.27438,448.45567 -12.05182,-2.1488 c 0,0 -19.73891,25.08281 -30.00738,22.54626 -10.26847,-2.53656 -19.74706,8.43364 -8.88414,11.95574 9.81245,3.18281 52.18923,7.6339 60.25906,8.45787 a 1.188895,1.1794174 0 0 0 1.31104,-1.1471 25.927683,25.720993 0 0 1 1.79963,-9.09606 c 2.17422,-5.29122 0,-16.65725 -0.60259,-21.00332 a 21.03367,20.865994 0 0 0 -2.36964,-7.27038 z"
         fill="#f3b5b7"
         id="path827"
         style="stroke-width:0.811059" />
    </g>
  </g>
</svg>
